<?xml version="1.0" standalone="no"?>
<!DOCTYPE svg PUBLIC "-//W3C//DTD SVG 20010904//EN"
 "http://www.w3.org/TR/2001/REC-SVG-20010904/DTD/svg10.dtd">
<svg version="1.0" xmlns="http://www.w3.org/2000/svg"
 width="1280.000000pt" height="1280.000000pt" viewBox="0 0 1280.000000 1280.000000"
 preserveAspectRatio="xMidYMid meet">
<metadata>
Created by potrace 1.15, written by Peter Selinger 2001-2017
</metadata>
<g transform="translate(0.000000,1280.000000) scale(0.100000,-0.100000)"
fill="#000000" stroke="none">
<path d="M2492 12788 c-5 -7 -13 -24 -17 -38 -4 -14 -14 -35 -22 -48 -13 -21
-12 -29 11 -87 15 -35 26 -71 26 -79 0 -29 21 -17 37 22 27 65 33 77 45 93 9
13 5 30 -20 83 -31 67 -42 76 -60 54z"/>
<path d="M10248 12735 c-25 -54 -29 -71 -20 -84 12 -16 18 -28 45 -93 17 -40
37 -51 37 -20 0 9 12 44 25 77 l25 60 -21 45 c-45 99 -51 100 -91 15z"/>
<path d="M1820 12671 c-69 -21 -132 -75 -165 -141 -10 -20 -20 -67 -23 -108
-7 -105 10 -142 113 -240 46 -44 91 -95 100 -112 24 -47 40 -33 38 34 -2 53
-1 56 25 61 124 26 175 55 327 190 66 58 131 108 144 112 14 3 43 1 65 -5 23
-6 42 -9 44 -7 9 9 -12 68 -34 95 -46 54 -116 47 -183 -21 -18 -19 -60 -73
-92 -121 -73 -108 -113 -155 -150 -174 -15 -7 -30 -14 -32 -14 -2 0 5 27 16
60 18 54 19 67 7 117 -17 77 -53 113 -112 113 -61 -1 -108 -44 -108 -100 0
-18 4 -20 23 -13 12 4 39 8 61 7 76 -1 104 -88 47 -145 -25 -25 -37 -29 -84
-29 -40 0 -63 6 -87 23 -58 39 -75 71 -75 140 0 105 67 191 171 223 96 29 170
9 267 -72 37 -31 71 -54 74 -50 12 12 -32 88 -69 120 -21 18 -61 40 -89 49
-53 18 -174 21 -219 8z"/>
<path d="M10757 12663 c-26 -10 -63 -31 -83 -46 -35 -29 -83 -111 -71 -123 3
-3 37 19 74 50 97 80 171 101 265 72 105 -31 173 -119 173 -223 0 -69 -17
-101 -75 -140 -24 -17 -47 -23 -87 -23 -47 0 -59 4 -84 29 -57 57 -29 144 47
145 22 1 49 -3 62 -7 18 -7 22 -5 22 13 0 56 -47 99 -108 100 -59 0 -95 -36
-112 -113 -12 -50 -11 -63 7 -117 11 -33 18 -60 16 -60 -2 0 -17 7 -32 14 -37
19 -77 66 -150 174 -32 48 -74 102 -92 121 -67 68 -137 75 -183 21 -22 -27
-43 -86 -34 -95 2 -2 21 1 44 7 22 6 51 8 65 5 13 -4 78 -54 144 -112 152
-135 203 -164 327 -190 26 -5 27 -8 25 -61 -2 -67 14 -81 38 -34 9 17 54 68
100 112 103 98 120 135 113 240 -7 109 -56 187 -148 234 -51 26 -200 30 -263
7z"/>
<path d="M2988 12656 c-74 -27 -129 -81 -143 -138 -10 -39 19 -37 54 3 60 72
82 88 136 100 106 24 221 -26 272 -116 32 -57 32 -158 0 -206 -51 -76 -141
-106 -219 -71 -56 25 -76 63 -58 116 21 64 83 85 133 46 l25 -20 7 30 c4 16 2
45 -5 64 -21 66 -107 71 -180 10 -64 -55 -76 -119 -35 -191 14 -23 21 -43 16
-43 -27 0 -73 60 -130 169 -37 71 -78 134 -98 151 -30 27 -41 30 -98 30 -54 0
-68 -4 -95 -27 -32 -26 -54 -68 -45 -83 3 -4 23 -4 45 1 27 6 56 5 87 -3 50
-12 95 -52 217 -191 62 -73 109 -102 176 -113 l42 -7 -6 -41 c-5 -29 -2 -48 8
-61 14 -19 16 -18 63 25 27 25 77 67 111 93 35 26 76 69 92 94 26 41 30 56 30
122 0 119 -50 195 -159 244 -59 26 -190 33 -243 13z"/>
<path d="M9593 12652 c-65 -23 -116 -62 -151 -115 -23 -34 -28 -54 -30 -122
-5 -117 19 -159 148 -255 25 -18 64 -52 88 -74 42 -40 44 -40 58 -21 10 14 13
32 8 61 l-6 41 42 7 c67 11 114 40 176 113 122 139 167 179 217 191 31 8 60 9
86 3 22 -5 42 -7 44 -5 12 12 -10 58 -40 84 -30 27 -41 30 -98 30 -57 0 -68
-3 -98 -30 -20 -17 -61 -80 -98 -151 -57 -109 -103 -169 -130 -169 -5 0 2 20
16 43 41 72 29 136 -35 191 -73 61 -159 56 -180 -10 -7 -19 -9 -48 -5 -64 l7
-30 25 20 c50 39 112 18 133 -46 18 -53 -2 -91 -58 -116 -78 -35 -168 -5 -219
71 -32 48 -32 149 0 206 51 90 166 140 272 116 54 -12 76 -28 136 -100 35 -40
64 -42 54 -3 -9 40 -56 94 -105 121 -60 34 -182 40 -257 13z"/>
<path d="M1420 12590 c-44 -71 -115 -86 -262 -54 -40 8 -108 16 -150 16 -67 1
-82 -2 -116 -25 -61 -40 -87 -102 -87 -207 0 -71 4 -94 27 -143 29 -62 110
-155 166 -189 20 -12 30 -24 24 -26 -18 -6 -114 42 -207 102 -83 54 -85 57
-85 94 0 41 -23 82 -87 157 -47 55 -43 93 11 119 l39 19 -32 29 c-21 18 -42
28 -64 28 -72 0 -136 -75 -122 -142 7 -28 6 -29 -15 -18 -20 11 -21 10 -10
-10 11 -21 10 -22 -18 -15 -67 14 -142 -50 -142 -122 0 -22 10 -43 28 -64 l29
-32 19 39 c26 54 64 58 119 11 75 -64 116 -87 157 -87 37 0 40 -2 94 -85 60
-93 108 -189 102 -207 -2 -6 -14 4 -26 24 -34 56 -127 137 -189 166 -49 23
-71 27 -143 27 -73 0 -92 -4 -136 -27 -75 -40 -98 -81 -96 -177 0 -42 8 -109
16 -149 32 -146 16 -219 -54 -263 -46 -28 -48 -49 -5 -61 69 -18 147 34 161
108 7 39 1 128 -11 159 -4 11 16 -3 46 -32 30 -29 58 -53 62 -53 16 0 5 28
-21 56 -59 63 -60 65 -9 58 43 -6 49 -4 81 28 80 80 47 208 -54 208 -44 0 -50
-9 -19 -28 50 -32 56 -117 10 -141 -106 -57 -208 104 -129 204 81 104 279 76
426 -59 40 -37 91 -121 79 -132 -2 -2 -20 3 -40 11 -53 22 -82 19 -101 -10
-23 -34 -20 -55 7 -55 12 0 41 -9 64 -19 51 -24 93 -91 119 -193 l18 -69 46 3
45 3 5 85 c3 47 12 96 19 110 22 41 62 79 97 90 24 8 36 20 44 44 11 35 49 75
90 97 14 7 63 16 110 19 l85 5 3 45 3 46 -69 18 c-102 26 -169 68 -193 119
-10 23 -19 52 -19 65 0 26 -21 29 -55 6 -29 -19 -32 -48 -10 -101 8 -20 13
-38 11 -40 -11 -12 -95 39 -132 79 -106 116 -150 266 -105 364 46 101 168 124
236 43 77 -93 -31 -194 -117 -109 -16 17 -31 30 -34 30 -2 0 -4 -18 -4 -40 0
-101 128 -134 208 -54 32 32 34 38 28 81 -7 50 -8 51 58 -9 29 -27 56 -36 56
-21 0 4 -23 31 -52 60 l-52 53 34 -10 c46 -13 132 -13 167 1 63 24 101 92 85
154 -12 43 -33 41 -62 -5z m-535 -615 c66 -36 116 -66 110 -67 -5 -1 -30 -2
-55 -2 l-45 -1 -1 -45 c0 -25 -1 -49 -2 -55 -2 -8 -132 222 -132 232 0 6 7 2
125 -62z m145 -121 c0 -3 -13 -10 -29 -15 -19 -7 -33 -21 -40 -40 -14 -41 -21
-36 -21 16 l0 45 45 0 c25 0 45 -2 45 -6z m0 -56 c-8 -7 -20 -20 -27 -28 -8
-9 -12 -11 -13 -3 0 15 28 43 43 43 7 0 6 -5 -3 -12z m32 -60 c-6 -6 -16 -8
-22 -6 -9 3 -7 9 6 22 13 13 19 15 22 6 2 -6 0 -16 -6 -22z"/>
<path d="M3583 12620 c-29 -12 -43 -40 -43 -90 0 -86 87 -120 206 -81 35 11
68 21 72 21 3 0 -22 -27 -57 -59 -36 -33 -60 -64 -57 -70 12 -19 25 -13 74 33
l47 44 -4 -41 c-7 -79 47 -138 134 -145 48 -4 53 -2 78 28 16 19 27 44 27 61
l0 30 -30 -21 c-17 -12 -48 -24 -69 -27 -32 -4 -41 -1 -59 22 -66 84 21 184
132 154 187 -50 148 -382 -56 -485 -28 -14 -51 -24 -53 -22 -2 2 2 26 8 55 9
43 8 55 -6 77 -27 41 -53 34 -66 -19 -22 -89 -97 -144 -229 -169 l-67 -12 0
-39 0 -40 70 -12 c128 -24 225 -92 225 -160 0 -28 17 -38 35 -23 20 16 19 63
-1 101 -8 17 -13 33 -10 36 11 11 118 -50 171 -98 58 -54 100 -128 111 -195 8
-56 -18 -145 -57 -188 -43 -50 -85 -61 -153 -42 -95 28 -125 99 -66 157 41 42
95 38 126 -8 17 -26 23 -29 28 -17 21 53 -5 106 -60 124 -48 16 -96 5 -133
-29 -28 -26 -31 -35 -31 -88 l-1 -58 -20 25 c-11 14 -27 33 -34 43 -8 9 -23
17 -34 17 -31 0 -15 -35 36 -76 24 -20 42 -38 40 -40 -2 -2 -20 3 -40 11 -104
43 -237 -14 -237 -102 0 -22 6 -47 13 -57 12 -16 15 -14 37 21 45 69 96 77
240 42 47 -12 121 -22 165 -23 68 -1 86 3 118 22 44 28 80 73 96 121 40 122
-40 314 -177 424 -19 15 -30 27 -24 27 17 0 170 -75 225 -109 43 -28 47 -34
47 -69 0 -44 26 -87 102 -171 67 -74 63 -93 -32 -129 l-24 -9 28 -26 c54 -50
161 -29 186 37 14 37 0 74 -47 126 -25 28 -40 50 -35 50 5 0 38 -20 73 -45
362 -254 439 -289 634 -288 117 0 194 24 255 79 56 51 73 94 68 171 -4 57 -8
67 -40 100 -31 31 -45 37 -90 41 -47 4 -58 1 -86 -23 -28 -23 -32 -33 -32 -73
l1 -47 15 34 c19 46 41 60 90 61 118 1 126 -156 11 -199 -72 -28 -130 -10
-232 72 -87 71 -121 87 -178 87 -34 0 -53 -6 -73 -24 -24 -20 -28 -31 -28 -80
-1 -31 -3 -56 -5 -56 -18 0 -207 118 -271 169 l-25 20 51 -5 c84 -10 164 45
180 124 7 34 -16 86 -46 102 -19 10 -20 8 -20 -33 0 -91 -61 -101 -196 -31
-75 40 -99 47 -154 49 -74 3 -118 20 -240 94 -47 28 -90 51 -97 51 -6 0 -14 4
-17 9 -4 5 92 9 233 8 132 -1 242 1 246 5 4 4 5 14 2 23 -6 13 -40 15 -252 15
-162 0 -244 3 -240 10 3 6 14 10 24 10 25 0 171 73 240 120 57 38 62 40 118
34 53 -6 65 -3 128 29 93 46 129 53 162 32 23 -16 25 -21 19 -66 -7 -54 -1
-59 39 -33 86 57 11 244 -97 244 -16 0 -28 3 -28 6 0 17 216 167 233 161 6 -2
16 -24 24 -49 8 -28 24 -56 41 -68 43 -35 94 -23 214 48 159 94 215 109 276
72 71 -43 92 -125 46 -179 -38 -45 -73 -42 -118 11 -20 23 -36 45 -36 50 0 18
-18 6 -24 -16 -8 -33 11 -82 39 -100 31 -20 107 -20 146 -1 70 37 89 136 45
230 -55 120 -216 187 -387 164 -133 -19 -233 -67 -405 -195 -113 -84 -174
-126 -174 -120 0 3 11 22 25 42 29 42 31 61 11 107 -36 86 -150 118 -209 58
-19 -19 -18 -19 37 -35 l56 -17 0 -42 c0 -38 -5 -46 -64 -102 -75 -71 -86 -90
-86 -147 0 -41 -4 -46 -47 -79 -85 -63 -244 -143 -242 -121 0 4 24 26 53 49
97 76 166 206 166 311 0 71 -21 123 -70 173 -65 67 -103 76 -250 55 -143 -20
-170 -20 -219 0 -35 14 -40 20 -43 52 -3 39 -12 45 -45 32z"/>
<path d="M9177 12623 c-4 -3 -7 -21 -7 -39 0 -28 -5 -34 -40 -48 -50 -20 -77
-20 -220 0 -147 21 -185 12 -250 -55 -50 -51 -70 -102 -70 -179 0 -101 77
-240 173 -312 25 -19 47 -38 47 -42 1 -21 -161 59 -242 120 -44 33 -48 39 -48
80 0 57 -11 76 -86 147 -59 56 -64 64 -64 102 l0 42 56 17 c55 16 56 16 37 35
-59 60 -173 28 -209 -58 -20 -46 -18 -65 11 -108 15 -20 25 -39 23 -41 -2 -1
-39 24 -83 56 -259 190 -353 239 -493 258 -172 24 -333 -43 -388 -163 -44 -94
-25 -193 45 -230 39 -19 115 -19 146 1 28 18 47 67 39 100 -6 22 -24 34 -24
16 0 -5 -16 -27 -36 -50 -45 -53 -80 -56 -118 -11 -46 54 -25 136 46 179 61
37 117 22 276 -72 120 -71 171 -83 214 -48 17 12 33 40 41 68 8 25 18 47 24
49 17 6 233 -144 233 -161 0 -3 -12 -6 -27 -6 -109 0 -184 -187 -98 -244 40
-26 46 -21 39 33 -6 45 -4 50 19 66 33 21 69 14 162 -32 63 -32 75 -35 128
-29 56 6 61 4 118 -34 69 -47 215 -120 240 -120 10 0 21 -4 24 -10 4 -7 -78
-10 -240 -10 -212 0 -246 -2 -252 -15 -3 -9 -2 -19 2 -23 4 -4 114 -6 246 -5
141 1 237 -3 233 -8 -3 -5 -11 -9 -17 -9 -7 0 -50 -23 -97 -51 -122 -74 -166
-91 -240 -94 -55 -2 -79 -9 -154 -49 -136 -70 -196 -60 -196 33 0 39 -2 41
-20 31 -30 -16 -53 -68 -46 -102 16 -79 96 -134 180 -124 l51 5 -25 -20 c-64
-51 -253 -169 -271 -169 -2 0 -4 25 -5 56 0 49 -4 60 -28 80 -20 18 -39 24
-73 24 -57 0 -91 -16 -178 -87 -38 -31 -84 -62 -102 -70 -88 -36 -194 6 -209
83 -12 67 25 114 90 114 49 -1 71 -15 90 -61 l15 -34 1 47 c0 40 -4 50 -32 73
-28 24 -39 27 -86 23 -45 -4 -59 -10 -90 -41 -32 -33 -36 -43 -40 -100 -5 -77
12 -120 68 -171 61 -55 138 -79 255 -79 195 -1 271 34 634 289 35 24 66 42 69
40 2 -3 -14 -26 -36 -51 -42 -48 -55 -85 -42 -121 25 -66 132 -87 186 -37 l28
26 -24 9 c-95 36 -99 55 -32 129 76 84 102 127 102 171 0 35 4 41 48 69 54 34
207 109 224 109 6 0 -5 -12 -24 -27 -118 -94 -195 -248 -185 -371 6 -75 37
-128 99 -169 37 -25 50 -28 122 -27 45 1 119 11 166 23 144 35 195 27 240 -42
22 -35 25 -37 37 -21 7 10 13 35 13 57 0 88 -133 145 -237 102 -20 -8 -38 -13
-40 -11 -2 2 16 20 40 40 51 41 67 76 36 76 -11 0 -26 -8 -34 -17 -7 -10 -23
-29 -34 -43 l-20 -25 -1 57 c0 49 -4 60 -30 87 -71 70 -200 38 -200 -50 0 -54
10 -62 34 -26 31 46 85 50 126 8 59 -58 29 -129 -66 -157 -43 -12 -61 -13 -89
-4 -47 16 -91 70 -111 136 -29 102 4 203 97 288 55 51 163 115 175 103 3 -3
-2 -19 -10 -36 -20 -38 -21 -85 -1 -101 18 -15 35 -5 35 23 0 68 97 136 225
160 l70 12 0 40 0 39 -67 12 c-132 25 -207 80 -229 169 -13 53 -39 60 -66 19
-14 -22 -15 -34 -6 -77 6 -29 10 -53 8 -55 -2 -2 -25 8 -53 22 -122 62 -202
229 -172 357 29 121 164 175 247 97 30 -28 31 -85 1 -123 -18 -24 -26 -27 -61
-22 -22 3 -53 15 -69 27 l-28 21 0 -30 c0 -17 11 -43 27 -61 25 -30 30 -32 78
-28 87 7 141 66 134 145 l-4 41 47 -44 c49 -46 62 -52 74 -33 3 6 -21 37 -57
70 -35 32 -60 59 -57 59 4 0 37 -10 72 -21 118 -39 206 -5 206 80 0 53 -7 69
-41 86 -32 17 -33 17 -42 8z"/>
<path d="M11323 12613 c-14 -35 -8 -92 13 -120 35 -48 80 -65 159 -60 39 2 79
7 90 12 11 4 -4 -17 -32 -46 -29 -30 -53 -58 -53 -62 0 -15 27 -6 56 21 66 60
65 59 58 9 -6 -43 -4 -49 28 -81 80 -80 208 -47 208 54 0 22 -2 40 -4 40 -3 0
-18 -13 -34 -30 -60 -60 -142 -33 -142 45 0 95 135 147 215 83 104 -81 76
-279 -59 -426 -37 -40 -121 -91 -132 -79 -2 2 3 20 11 40 22 53 19 82 -10 101
-34 23 -55 20 -55 -6 0 -13 -9 -42 -19 -65 -24 -51 -91 -93 -193 -119 l-69
-18 3 -46 3 -45 85 -5 c47 -3 96 -12 110 -19 41 -22 79 -62 90 -97 8 -24 20
-36 44 -44 35 -11 75 -49 97 -90 7 -14 16 -63 19 -110 l5 -85 45 -3 46 -3 18
69 c26 102 68 169 119 193 23 10 52 19 65 19 26 0 29 21 6 55 -19 30 -60 33
-105 9 -17 -8 -33 -13 -36 -11 -12 12 38 95 79 133 116 106 266 150 364 105
74 -34 108 -104 84 -175 -30 -91 -151 -118 -180 -40 -12 31 9 87 39 106 31 19
26 28 -15 28 -46 0 -70 -14 -89 -50 -21 -40 -19 -89 5 -127 30 -49 63 -67 112
-59 46 7 45 5 -14 -58 -26 -28 -37 -56 -21 -56 4 0 32 24 62 53 30 29 50 43
46 32 -12 -31 -18 -120 -11 -159 14 -74 92 -126 161 -108 43 12 41 33 -5 61
-70 44 -86 117 -54 263 8 40 16 107 16 149 2 96 -21 137 -96 177 -44 23 -63
27 -136 27 -72 0 -94 -4 -143 -27 -62 -29 -155 -110 -189 -166 -12 -20 -24
-30 -26 -24 -6 18 42 114 102 207 54 83 57 85 94 85 41 0 82 23 157 87 55 47
93 43 119 -11 l19 -39 29 32 c18 21 28 42 28 64 0 72 -75 136 -142 122 -28 -7
-29 -6 -18 15 11 20 10 21 -10 10 -21 -11 -22 -10 -15 18 14 67 -50 142 -122
142 -22 0 -43 -10 -64 -28 l-32 -29 39 -19 c54 -26 58 -64 11 -119 -64 -75
-87 -116 -87 -157 0 -37 -2 -40 -85 -94 -93 -60 -189 -108 -207 -102 -6 2 4
14 24 26 56 34 137 127 166 189 23 49 27 71 27 143 0 73 -4 92 -27 136 -40 75
-81 98 -177 96 -42 0 -109 -8 -149 -16 -146 -32 -218 -17 -262 54 -26 43 -46
51 -57 23z m717 -576 c0 -10 -130 -240 -132 -232 -1 6 -2 30 -2 55 l-1 45 -45
1 c-25 0 -49 1 -55 2 -5 1 42 31 105 66 107 59 130 70 130 63z m-180 -222 c0
-52 -7 -57 -21 -16 -7 19 -21 33 -40 40 -41 14 -36 21 16 21 l45 0 0 -45z
m-66 -21 c9 -8 16 -21 16 -27 0 -7 -5 -6 -12 3 -7 8 -20 20 -28 27 -9 8 -11
12 -3 13 6 0 19 -7 27 -16z m-30 -50 c4 -11 1 -14 -11 -12 -10 2 -19 11 -21
21 -4 21 24 13 32 -9z"/>
<path d="M2457 12273 c-76 -109 -205 -228 -303 -280 -90 -48 -199 -80 -296
-90 -38 -3 -68 -9 -68 -13 0 -13 75 -40 144 -51 89 -15 189 -56 275 -113 82
-55 205 -182 252 -259 18 -31 36 -57 39 -57 4 0 27 28 53 63 58 80 180 196
255 244 78 50 191 97 287 118 112 25 133 32 115 38 -8 3 -71 22 -140 42 -285
83 -446 204 -514 388 -10 26 -24 47 -31 47 -7 0 -38 -35 -68 -77z m110 -108
c23 -30 68 -75 100 -100 65 -51 215 -131 311 -165 34 -13 65 -26 67 -30 2 -4
-34 -20 -80 -35 -130 -42 -233 -111 -401 -268 l-62 -58 -49 62 c-85 109 -262
226 -413 274 -30 10 -59 21 -63 25 -5 4 15 16 45 25 134 44 293 144 421 265
34 33 67 59 72 60 6 0 29 -25 52 -55z"/>
<path d="M2457 12090 c-49 -47 -51 -50 -37 -72 8 -13 22 -39 32 -58 17 -31 17
-35 3 -38 -9 -2 -34 8 -55 22 -22 14 -48 26 -57 26 -24 -1 -186 -82 -189 -95
-2 -5 36 -30 85 -54 l88 -43 55 31 c67 38 92 41 82 9 -4 -13 -20 -38 -35 -56
-16 -18 -29 -37 -29 -42 0 -11 89 -113 102 -119 14 -5 60 42 82 84 19 35 19
35 -1 58 -43 47 -56 97 -26 97 10 0 41 -16 68 -35 l51 -34 86 42 c48 23 87 47
88 54 0 7 -39 32 -87 57 l-87 45 -45 -29 c-46 -31 -101 -40 -101 -17 0 7 16
32 36 55 21 25 34 49 30 57 -9 24 -70 104 -79 105 -5 0 -32 -22 -60 -50z"/>
<path d="M10254 12333 c-3 -10 -21 -50 -40 -89 -71 -149 -225 -254 -484 -329
-162 -48 -154 -45 -149 -50 3 -2 40 -11 84 -20 106 -22 225 -67 306 -115 82
-49 213 -170 276 -256 26 -35 49 -64 52 -64 3 0 26 32 50 70 115 182 324 327
517 359 69 11 144 38 144 51 0 4 -30 10 -67 13 -98 10 -207 42 -297 90 -98 52
-227 171 -303 280 -54 77 -79 93 -89 60z m101 -171 c133 -125 266 -211 401
-258 41 -15 71 -30 67 -34 -4 -4 -33 -15 -63 -25 -151 -48 -328 -165 -413
-274 l-49 -62 -62 58 c-168 157 -271 226 -401 268 -46 15 -82 31 -80 35 2 4
33 17 67 30 96 34 246 114 311 165 32 25 77 70 100 100 23 30 46 55 51 55 5 0
36 -26 71 -58z"/>
<path d="M10242 12095 c-48 -65 -48 -70 -8 -117 20 -23 36 -48 36 -55 0 -23
-55 -14 -101 17 l-45 29 -87 -45 c-48 -25 -87 -50 -87 -57 1 -7 40 -31 87 -55
l86 -42 51 35 c28 19 59 35 69 35 30 0 17 -50 -26 -97 -20 -23 -20 -23 -1 -58
22 -42 68 -89 82 -84 13 6 102 108 102 119 0 5 -13 24 -29 42 -15 18 -31 43
-35 56 -10 32 15 29 82 -9 l55 -31 88 43 c49 24 87 49 85 54 -3 13 -165 94
-189 95 -9 0 -35 -12 -57 -26 -21 -14 -46 -24 -55 -22 -14 3 -14 7 3 38 10 19
24 45 32 58 14 22 12 25 -37 72 -28 28 -55 50 -60 50 -4 -1 -23 -21 -41 -45z"/>
<path d="M3655 12332 c-51 -11 -72 -64 -37 -95 23 -21 51 -22 80 -1 45 31 11
108 -43 96z"/>
<path d="M9101 12323 c-45 -31 -13 -103 45 -103 26 0 54 30 54 57 0 41 -64 71
-99 46z"/>
<path d="M2804 12288 c11 -71 61 -164 118 -221 88 -88 220 -141 383 -154 74
-6 79 -5 66 10 -7 10 -27 17 -43 17 -52 0 -150 30 -238 72 -113 54 -192 133
-240 241 -19 42 -39 77 -44 77 -5 0 -6 -19 -2 -42z"/>
<path d="M9950 12253 c-48 -108 -127 -187 -240 -241 -88 -42 -186 -72 -238
-72 -16 0 -36 -7 -43 -17 -13 -15 -8 -16 66 -10 226 18 393 115 465 269 30 65
49 148 34 148 -5 0 -25 -35 -44 -77z"/>
<path d="M1301 12306 c-7 -8 -11 -30 -9 -48 2 -25 9 -35 31 -42 53 -19 115 59
71 91 -24 17 -79 17 -93 -1z"/>
<path d="M11406 12307 c-25 -18 -17 -56 16 -80 40 -30 82 -15 86 31 2 18 -2
40 -9 48 -14 18 -69 18 -93 1z"/>
<path d="M2187 12262 c-9 -10 -24 -35 -32 -57 -22 -52 -107 -133 -182 -172
-65 -35 -212 -78 -307 -89 -53 -6 -58 -8 -41 -20 11 -9 45 -14 83 -14 191 0
396 119 500 291 37 61 21 107 -21 61z"/>
<path d="M10570 12259 c0 -25 29 -76 77 -136 68 -83 204 -167 320 -197 76 -20
182 -21 208 -2 17 12 12 14 -41 20 -95 11 -242 54 -307 89 -75 39 -160 120
-182 172 -28 68 -75 101 -75 54z"/>
<path d="M1422 12238 c-7 -7 -12 -24 -12 -38 0 -36 17 -50 61 -50 37 0 49 12
49 49 0 40 -69 68 -98 39z"/>
<path d="M3502 12238 c-17 -17 -15 -73 4 -88 11 -10 25 -11 52 -4 32 8 37 13
40 40 2 19 -3 38 -13 48 -19 19 -66 21 -83 4z"/>
<path d="M9215 12234 c-10 -10 -15 -29 -13 -48 3 -27 8 -32 40 -40 27 -7 41
-6 52 4 19 15 21 71 4 88 -17 17 -64 15 -83 -4z"/>
<path d="M11297 12232 c-37 -41 -16 -85 38 -80 47 4 63 26 49 65 -12 35 -61
44 -87 15z"/>
<path d="M1535 12166 c-12 -19 -14 -30 -6 -44 21 -40 101 -35 101 6 0 56 -66
82 -95 38z"/>
<path d="M11186 12168 c-9 -12 -16 -30 -16 -40 0 -41 80 -46 101 -6 8 14 6 25
-6 44 -20 31 -59 32 -79 2z"/>
<path d="M3395 12146 c-32 -49 22 -86 73 -50 27 18 28 36 4 57 -26 24 -59 21
-77 -7z"/>
<path d="M9327 12152 c-23 -25 -21 -38 5 -56 31 -22 61 -20 76 5 11 17 11 25
-3 45 -19 29 -55 31 -78 6z"/>
<path d="M5544 12079 c-65 -68 -164 -114 -311 -144 -63 -13 -456 -55 -516 -55
-32 0 -13 -24 29 -37 21 -6 95 -12 162 -12 239 -2 486 -76 607 -182 l34 -30
69 41 c138 81 294 128 600 180 l182 30 183 -30 c304 -52 459 -98 600 -181 l68
-40 34 30 c121 106 368 180 607 182 67 0 141 6 162 12 42 13 61 37 29 37 -60
0 -453 42 -516 55 -147 30 -246 76 -311 144 l-28 29 -67 -42 c-132 -86 -290
-130 -588 -167 l-173 -21 -173 21 c-298 37 -456 81 -588 167 l-67 42 -28 -29z
m94 -105 c82 -33 156 -48 367 -74 94 -12 174 -26 179 -31 6 -6 6 -9 -2 -9 -28
0 -243 -33 -298 -46 -34 -8 -102 -29 -150 -48 -146 -56 -160 -56 -267 -3 -72
36 -118 50 -214 68 -68 13 -123 26 -123 30 0 3 29 9 64 12 104 10 205 38 290
83 45 23 83 42 85 43 3 0 33 -11 69 -25z m1676 -18 c98 -48 187 -73 290 -83
36 -3 66 -9 66 -12 0 -4 -55 -17 -122 -30 -97 -18 -143 -32 -215 -68 -107 -53
-121 -53 -267 3 -48 19 -116 40 -150 48 -55 13 -270 46 -298 46 -8 0 -8 3 -2
9 5 5 86 19 179 31 211 26 286 42 361 73 32 14 61 25 63 26 3 0 46 -19 95 -43z"/>
<path d="M3514 12061 c-44 -27 -85 -114 -91 -194 -10 -118 29 -177 120 -185
46 -4 57 -1 85 23 30 26 44 65 22 65 -6 0 -22 -7 -35 -16 -23 -15 -26 -15 -54
13 -53 53 -51 147 4 210 23 28 24 28 53 11 48 -28 56 -22 30 23 -22 39 -61 69
-90 69 -7 0 -27 -9 -44 -19z"/>
<path d="M9200 12066 c-28 -16 -78 -96 -60 -96 7 0 25 8 42 18 29 17 30 17 53
-11 55 -63 57 -157 4 -210 -28 -28 -31 -28 -54 -13 -13 9 -29 16 -35 16 -22 0
-8 -39 22 -65 28 -24 39 -27 85 -23 64 6 98 33 114 92 26 95 -19 247 -85 287
-36 22 -52 23 -86 5z"/>
<path d="M1399 12051 c-13 -10 -33 -34 -43 -51 l-19 -33 29 7 c58 15 76 12 96
-15 47 -63 23 -182 -43 -209 -26 -11 -32 -10 -53 9 -34 32 -50 27 -31 -9 26
-51 54 -70 102 -70 96 0 134 47 134 168 0 89 -17 141 -64 190 -36 37 -72 42
-108 13z"/>
<path d="M11292 12038 c-47 -49 -63 -99 -63 -189 0 -122 37 -169 134 -169 48
0 76 19 102 70 19 36 3 41 -31 9 -21 -19 -27 -20 -53 -9 -66 27 -90 146 -43
209 20 27 38 30 96 15 l29 -7 -19 33 c-45 76 -101 90 -152 38z"/>
<path d="M4557 11939 c-49 -28 -57 -110 -14 -149 28 -27 90 -27 117 0 26 26
28 120 4 144 -17 18 -80 21 -107 5z"/>
<path d="M8136 11934 c-24 -24 -22 -118 4 -144 27 -27 89 -27 117 0 43 40 34
123 -16 150 -29 15 -87 12 -105 -6z"/>
<path d="M11145 11852 c-185 -19 -359 -94 -452 -194 -54 -60 -73 -98 -79 -161
l-4 -52 20 44 c72 156 224 263 435 306 48 9 88 24 99 35 24 23 21 26 -19 22z"/>
<path d="M1635 11832 c13 -14 48 -27 100 -37 211 -43 363 -150 435 -306 l20
-44 -4 54 c-3 31 -16 70 -30 95 -75 128 -276 235 -476 253 l-65 5 20 -20z"/>
<path d="M3294 11834 c-245 -41 -408 -140 -479 -290 -31 -66 -27 -80 11 -33
61 76 183 186 239 216 76 40 159 64 249 72 64 5 71 8 74 29 2 12 0 22 -5 21
-4 -1 -44 -7 -89 -15z"/>
<path d="M9412 11827 c3 -20 10 -23 82 -29 152 -14 264 -67 377 -178 41 -41
88 -90 103 -109 37 -47 42 -33 11 32 -68 144 -216 240 -432 281 -152 29 -145
28 -141 3z"/>
<path d="M3110 11685 c-8 -10 -10 -29 -6 -54 l6 -38 -88 -33 c-117 -45 -147
-65 -233 -160 -108 -119 -174 -150 -253 -120 -24 9 -26 7 -26 -15 0 -14 13
-39 29 -57 26 -29 35 -33 83 -33 79 0 114 27 199 153 102 153 153 202 209 202
21 0 20 -2 -8 -37 -59 -76 -64 -102 -32 -170 36 -80 144 -112 194 -58 23 24
42 72 33 81 -2 3 -26 0 -54 -6 -34 -8 -58 -8 -76 -1 -53 20 -59 104 -13 158
72 83 256 -37 256 -166 -1 -144 -144 -251 -292 -220 -46 10 -68 25 -180 121
-21 17 -41 29 -44 25 -11 -10 48 -106 81 -132 60 -45 107 -57 202 -54 68 3 98
9 133 27 100 52 155 136 154 237 0 85 -19 121 -119 225 -51 52 -98 105 -104
118 -14 26 -33 28 -51 7z"/>
<path d="M9639 11678 c-6 -13 -53 -66 -104 -118 -100 -104 -119 -140 -119
-225 -1 -101 54 -185 154 -237 35 -18 65 -24 133 -27 95 -3 142 9 202 54 33
26 92 122 81 132 -3 4 -23 -8 -44 -25 -112 -96 -134 -111 -180 -121 -149 -32
-291 75 -292 220 0 61 43 128 106 165 84 50 149 34 174 -42 28 -84 -22 -134
-112 -114 -28 6 -53 9 -55 6 -9 -9 10 -57 33 -81 50 -54 158 -22 194 58 32 68
27 94 -32 170 -28 35 -29 37 -8 37 56 0 99 -42 207 -200 91 -134 133 -165 213
-157 51 6 100 50 100 92 0 22 -2 24 -26 15 -79 -30 -145 1 -253 120 -86 95
-116 115 -233 160 l-88 33 6 38 c10 61 -32 95 -57 47z"/>
<path d="M1835 11644 c-111 -75 -155 -114 -186 -168 -73 -128 -9 -303 136
-372 95 -45 235 -25 316 44 39 34 77 98 65 110 -3 3 -28 -14 -56 -37 -86 -72
-126 -91 -201 -91 -133 0 -239 91 -239 205 0 65 12 101 48 139 54 57 133 71
209 37 46 -21 63 -45 63 -89 0 -33 -32 -80 -64 -91 -30 -12 -73 7 -93 39 -22
37 -33 29 -33 -23 0 -54 21 -83 70 -98 77 -23 163 33 177 115 8 49 -2 80 -38
121 -17 19 -26 35 -20 35 23 0 96 -78 154 -165 118 -175 182 -223 252 -189 34
16 85 70 85 90 0 5 -26 8 -58 6 -98 -6 -146 24 -262 163 -80 96 -141 140 -216
155 -49 10 -53 13 -43 31 5 11 9 33 7 50 l-3 29 -70 -46z"/>
<path d="M10890 11660 c0 -17 4 -40 10 -50 9 -17 4 -20 -44 -30 -75 -15 -136
-59 -216 -155 -116 -139 -164 -169 -262 -163 -32 2 -58 -1 -58 -6 0 -20 51
-74 85 -90 70 -34 134 14 252 189 58 87 131 165 154 165 6 0 -3 -16 -20 -35
-36 -41 -46 -72 -38 -121 8 -51 42 -90 92 -110 38 -14 52 -15 85 -5 49 15 70
44 70 98 0 52 -11 60 -33 23 -20 -32 -63 -51 -93 -39 -32 11 -64 58 -64 91 0
44 17 68 63 89 76 34 155 20 209 -37 36 -38 48 -74 48 -139 0 -114 -106 -205
-239 -205 -75 0 -115 19 -201 91 -28 23 -53 40 -56 37 -12 -12 26 -76 65 -110
81 -69 221 -89 316 -44 103 49 164 144 165 256 0 108 -47 171 -205 277 -90 59
-85 58 -85 23z"/>
<path d="M1530 11656 c-18 -23 -8 -59 22 -73 50 -24 84 16 54 62 -18 28 -57
33 -76 11z"/>
<path d="M11194 11645 c-17 -27 -12 -60 12 -69 25 -9 69 16 72 42 8 52 -55 72
-84 27z"/>
<path d="M3374 11636 c-10 -26 0 -50 28 -66 25 -13 29 -13 45 2 27 28 7 72
-35 76 -22 2 -34 -2 -38 -12z"/>
<path d="M9349 11626 c-22 -48 13 -80 57 -51 18 12 24 23 22 43 -2 22 -9 28
-35 30 -27 3 -35 -1 -44 -22z"/>
<path d="M1404 11576 c-14 -58 42 -87 84 -43 41 43 25 67 -44 67 -27 0 -35 -5
-40 -24z"/>
<path d="M3492 11588 c-33 -33 9 -94 60 -86 33 5 47 51 23 78 -20 22 -64 27
-83 8z"/>
<path d="M9225 11580 c-24 -27 -10 -73 23 -78 51 -8 93 53 60 86 -19 19 -63
14 -83 -8z"/>
<path d="M11303 11593 c-35 -13 12 -83 55 -83 26 0 46 34 38 66 -5 20 -12 24
-44 23 -20 0 -43 -3 -49 -6z"/>
<path d="M1289 11522 c-40 -36 -45 -85 -10 -114 34 -27 63 -22 99 15 36 37 40
65 15 95 -31 36 -66 38 -104 4z"/>
<path d="M11433 11540 c-51 -21 -55 -74 -10 -118 37 -36 65 -40 98 -14 34 29
30 78 -9 114 -34 30 -44 32 -79 18z"/>
<path d="M3622 11518 c-31 -31 -4 -80 52 -94 33 -8 46 6 46 52 0 38 -16 54
-55 54 -17 0 -36 -5 -43 -12z"/>
<path d="M9092 11518 c-14 -14 -16 -67 -3 -87 19 -30 101 13 101 54 0 30 -19
45 -55 45 -17 0 -36 -5 -43 -12z"/>
<path d="M492 11498 c-16 -16 -16 -69 1 -92 18 -25 56 -17 80 16 17 23 19 33
11 55 -7 22 -16 29 -44 31 -19 2 -41 -3 -48 -10z"/>
<path d="M12220 11491 c-15 -29 -12 -45 11 -75 24 -31 64 -34 79 -7 14 26 13
74 -2 89 -20 20 -76 15 -88 -7z"/>
<path d="M1020 11468 c0 -6 10 -22 22 -35 21 -22 21 -26 8 -50 -27 -46 -66
-68 -125 -68 -39 0 -61 6 -82 21 -29 22 -32 39 -17 98 l7 29 -33 -19 c-76 -45
-90 -101 -37 -152 48 -46 95 -62 187 -62 93 0 132 15 155 60 22 43 19 111 -5
138 -28 30 -80 56 -80 40z"/>
<path d="M11740 11459 c-48 -30 -59 -48 -60 -97 0 -96 46 -132 168 -132 91 0
141 17 190 63 52 50 38 106 -38 151 l-33 19 7 -29 c15 -59 12 -76 -17 -98 -21
-15 -43 -21 -82 -21 -59 0 -98 22 -125 68 -13 24 -13 28 9 51 34 36 23 50 -19
25z"/>
<path d="M1213 11393 c-13 -5 -18 -60 -7 -87 14 -37 84 6 84 52 0 31 -41 50
-77 35z"/>
<path d="M11528 11389 c-25 -14 -22 -51 5 -77 43 -40 67 -25 67 43 0 42 -32
58 -72 34z"/>
<path d="M568 11379 c-37 -21 -10 -99 34 -99 36 0 48 12 48 49 0 20 -5 42 -12
49 -15 15 -47 15 -70 1z"/>
<path d="M12162 11378 c-18 -18 -15 -85 4 -92 44 -17 84 10 84 57 0 40 -59 64
-88 35z"/>
<path d="M632 11264 c-42 -29 -14 -94 40 -94 40 0 46 80 8 100 -24 13 -22 13
-48 -6z"/>
<path d="M1142 11268 c-20 -20 -14 -56 13 -74 46 -30 86 4 62 54 -14 30 -54
41 -75 20z"/>
<path d="M11592 11268 c-28 -37 -16 -88 21 -88 43 0 73 60 45 88 -16 16 -53
15 -66 0z"/>
<path d="M12119 11270 c-37 -22 -30 -100 9 -100 29 0 62 29 62 55 0 13 -10 31
-22 39 -26 18 -28 19 -49 6z"/>
<path d="M2477 11163 c-13 -21 -27 -44 -32 -52 -11 -19 45 -121 67 -121 39 0
50 82 21 163 -9 26 -21 47 -25 47 -4 0 -18 -17 -31 -37z"/>
<path d="M10267 11153 c-19 -54 -22 -115 -7 -144 19 -34 43 -22 74 36 l28 54
-29 47 c-16 26 -33 49 -39 51 -5 2 -18 -18 -27 -44z"/>
<path d="M856 11134 c-12 -101 -44 -216 -82 -292 -42 -86 -124 -174 -183 -198
-23 -9 -51 -28 -62 -43 l-21 -26 26 -3 c36 -5 111 42 182 114 69 70 133 185
158 280 20 77 21 183 2 209 -12 17 -14 12 -20 -41z"/>
<path d="M11922 11173 c-17 -30 -15 -134 4 -206 21 -83 74 -184 133 -255 60
-71 161 -142 203 -142 29 0 30 1 16 23 -8 12 -37 33 -64 47 -139 69 -229 229
-268 479 -10 68 -13 74 -24 54z"/>
<path d="M953 11120 c9 -97 32 -175 82 -276 70 -143 183 -235 289 -234 28 0
24 4 -32 31 -142 69 -245 221 -287 425 -10 51 -23 86 -37 99 l-20 20 5 -65z"/>
<path d="M1324 11151 c-54 -31 -93 -75 -168 -186 l-46 -70 29 -3 c17 -2 39 2
50 7 18 10 21 6 31 -43 15 -75 59 -136 155 -216 139 -116 169 -164 163 -262
-2 -32 1 -58 6 -58 20 0 74 51 90 85 34 70 -12 132 -191 254 -89 61 -163 130
-163 152 0 6 16 -3 35 -20 41 -36 72 -46 121 -38 51 8 90 42 110 92 14 38 15
52 5 85 -15 49 -44 70 -98 70 -52 0 -60 -11 -23 -33 32 -20 51 -63 39 -93 -11
-32 -58 -64 -91 -64 -44 0 -68 17 -89 63 -34 76 -20 155 37 209 38 36 74 48
139 48 114 0 205 -106 205 -239 0 -75 -19 -115 -91 -201 -23 -28 -40 -53 -37
-56 12 -12 76 26 110 65 69 81 89 221 44 316 -69 145 -244 209 -372 136z"/>
<path d="M11250 11159 c-60 -27 -117 -83 -146 -144 -45 -95 -25 -235 44 -316
34 -39 98 -77 110 -65 3 3 -14 28 -37 56 -72 86 -91 126 -91 201 0 90 36 161
104 207 127 85 297 1 296 -146 0 -46 -32 -117 -58 -131 -50 -27 -122 2 -143
56 -11 31 9 73 45 92 34 19 24 31 -27 31 -54 0 -83 -21 -98 -70 -23 -77 33
-163 115 -177 49 -8 80 2 121 38 19 17 35 26 35 20 0 -22 -74 -91 -163 -152
-179 -122 -225 -184 -191 -254 16 -34 70 -85 90 -85 5 0 9 33 9 74 0 67 3 79
30 117 17 24 72 79 123 124 108 93 147 145 162 221 10 49 13 53 31 43 11 -5
33 -9 50 -7 l29 3 -46 70 c-75 111 -114 155 -168 186 -64 37 -156 40 -226 8z"/>
<path d="M11828 11164 c-9 -11 -24 -55 -33 -98 -42 -204 -145 -356 -287 -425
-56 -27 -60 -31 -32 -31 99 -1 215 89 282 218 58 113 98 258 90 326 -3 27 -4
28 -20 10z"/>
<path d="M286 11150 c-106 -41 -157 -121 -164 -252 -5 -102 13 -167 64 -227
32 -37 108 -80 121 -68 3 4 -12 27 -33 53 -68 80 -83 106 -95 161 -24 106 24
214 118 270 62 36 156 40 200 7 50 -37 73 -81 73 -141 0 -47 -4 -59 -29 -84
-57 -57 -144 -29 -145 47 -1 22 3 49 7 62 7 18 5 22 -13 22 -56 0 -99 -47
-100 -108 0 -59 36 -95 113 -112 50 -12 63 -11 117 7 33 11 60 18 60 16 0 -2
-7 -17 -14 -32 -19 -37 -66 -77 -174 -150 -48 -32 -102 -74 -121 -92 -68 -67
-75 -137 -21 -183 27 -22 86 -43 95 -34 2 2 -1 21 -7 44 -6 22 -8 51 -5 65 4
13 54 78 112 144 135 152 164 203 190 327 5 26 8 27 61 25 66 -2 81 14 35 37
-16 9 -65 52 -108 97 -43 45 -96 90 -118 100 -53 25 -154 24 -219 -1z"/>
<path d="M12295 11151 c-22 -10 -76 -56 -120 -101 -44 -45 -93 -89 -108 -97
-44 -22 -28 -38 37 -36 53 2 56 1 61 -25 26 -124 55 -175 190 -327 58 -66 108
-131 112 -144 3 -14 1 -43 -5 -65 -6 -23 -9 -42 -7 -44 9 -9 68 12 95 34 54
46 47 116 -21 183 -19 18 -74 60 -124 93 -102 69 -150 111 -171 150 -8 15 -14
29 -14 31 0 2 27 -5 60 -16 54 -18 67 -19 117 -7 77 17 113 53 113 112 -1 61
-44 108 -100 108 -18 0 -20 -4 -13 -22 4 -13 8 -40 7 -62 -1 -76 -88 -104
-145 -47 -25 25 -29 37 -29 84 0 60 23 104 73 141 44 33 138 29 200 -7 94 -56
142 -164 118 -270 -12 -55 -27 -81 -95 -161 -21 -26 -36 -49 -33 -53 10 -10
83 27 111 56 14 14 37 52 52 84 24 53 26 67 22 150 -5 103 -19 140 -76 200
-69 72 -217 100 -307 58z"/>
<path d="M897 10943 c-10 -98 -42 -206 -90 -298 -49 -93 -191 -244 -295 -314
-39 -26 -62 -48 -60 -58 2 -8 23 -22 48 -30 175 -59 303 -230 385 -513 48
-162 45 -154 50 -149 2 3 11 40 20 83 50 240 178 441 373 584 34 25 62 48 62
52 0 3 -26 21 -57 39 -77 47 -204 170 -259 252 -57 86 -98 186 -113 275 -11
69 -38 144 -51 144 -4 0 -10 -30 -13 -67z m58 -183 c48 -151 165 -328 274
-413 l62 -49 -58 -62 c-157 -168 -226 -271 -268 -401 -15 -46 -31 -82 -35 -80
-4 2 -17 33 -30 67 -68 188 -188 368 -286 429 -19 11 -34 25 -34 31 0 6 27 39
60 74 123 132 221 288 265 422 9 30 21 50 25 45 4 -4 15 -33 25 -63z"/>
<path d="M907 10627 c-22 -34 -77 -157 -77 -174 0 -7 12 -31 26 -53 14 -21 24
-46 22 -55 -3 -14 -7 -14 -38 3 -19 10 -45 24 -58 32 -22 14 -25 12 -75 -39
l-51 -54 44 -39 c63 -54 73 -55 122 -14 23 20 48 36 55 36 23 0 14 -54 -16
-102 l-29 -46 43 -83 c23 -46 48 -85 56 -86 9 -2 30 31 56 84 l42 87 -34 51
c-19 27 -35 58 -35 68 0 30 50 17 97 -26 23 -20 23 -20 58 -1 42 22 89 68 84
82 -6 13 -108 102 -119 102 -5 0 -24 -13 -42 -29 -18 -15 -43 -31 -55 -35 -33
-10 -30 15 8 82 l31 55 -43 88 c-24 49 -47 88 -50 89 -4 0 -14 -11 -22 -23z"/>
<path d="M11867 10973 c-9 -21 -22 -69 -28 -107 -15 -89 -56 -189 -113 -275
-55 -82 -182 -205 -259 -252 -31 -18 -57 -36 -57 -39 0 -4 28 -27 63 -52 194
-143 322 -344 372 -584 9 -43 18 -80 20 -83 5 -5 2 -13 50 149 82 283 210 454
385 513 25 8 46 22 48 30 2 10 -21 32 -60 58 -104 70 -246 221 -295 314 -48
92 -80 200 -90 298 -3 37 -9 67 -13 67 -4 0 -14 -17 -23 -37z m28 -195 c44
-134 142 -290 265 -422 33 -35 60 -68 60 -74 0 -6 -15 -20 -34 -31 -98 -61
-218 -241 -286 -429 -13 -34 -26 -65 -30 -67 -4 -2 -20 34 -35 80 -42 130
-111 233 -268 401 l-58 62 62 49 c108 85 226 261 274 413 18 57 24 70 30 70 2
0 11 -24 20 -52z"/>
<path d="M11821 10561 l-43 -88 31 -55 c38 -67 41 -92 9 -82 -13 4 -38 20 -56
35 -18 16 -37 29 -42 29 -11 0 -113 -89 -119 -102 -5 -14 42 -60 84 -82 35
-19 35 -19 58 1 47 43 97 56 97 26 0 -10 -16 -41 -35 -68 l-34 -51 42 -87 c26
-53 47 -86 56 -84 8 1 33 40 56 86 l43 83 -29 46 c-30 48 -39 102 -16 102 7 0
32 -16 55 -36 49 -41 59 -40 122 14 l44 39 -51 54 c-50 51 -53 53 -75 39 -13
-8 -39 -22 -58 -32 -31 -17 -35 -17 -38 -3 -2 9 8 34 22 55 14 22 26 48 26 57
-1 24 -82 186 -95 189 -5 2 -30 -36 -54 -85z"/>
<path d="M90 10345 c-14 -8 -38 -20 -54 -27 -49 -21 -43 -36 29 -70 54 -25 71
-29 84 -20 16 12 28 18 94 45 20 9 37 20 37 24 0 7 -93 42 -150 58 -8 2 -26
-3 -40 -10z"/>
<path d="M1648 10330 c-27 -17 -48 -34 -48 -38 0 -13 92 -42 133 -42 88 0 102
41 27 83 -28 15 -53 27 -58 27 -4 0 -28 -14 -54 -30z"/>
<path d="M11038 10332 c-72 -41 -58 -82 29 -82 41 0 133 29 133 42 0 10 -91
68 -105 67 -5 0 -31 -12 -57 -27z"/>
<path d="M12610 10334 c-30 -13 -63 -24 -72 -24 -31 0 -20 -20 20 -37 65 -27
77 -33 93 -45 13 -9 30 -5 84 20 64 31 76 47 44 63 -32 17 -106 49 -110 48 -2
-1 -29 -12 -59 -25z"/>
<path d="M1520 10264 c30 -79 -1 -145 -120 -253 -95 -86 -115 -116 -159 -233
l-33 -86 -45 1 c-34 2 -48 -2 -57 -17 -9 -15 -7 -20 9 -30 10 -6 64 -53 118
-104 112 -106 147 -125 232 -125 104 -1 184 51 237 153 18 35 24 65 27 133 3
95 -9 142 -54 202 -26 33 -122 92 -132 81 -4 -3 8 -23 25 -44 96 -112 111
-134 121 -180 31 -148 -76 -291 -220 -292 -91 0 -192 99 -192 191 0 46 21 74
69 89 84 28 134 -22 114 -112 -6 -28 -9 -53 -6 -55 9 -9 57 10 81 33 54 50 22
158 -58 194 -68 32 -94 27 -169 -32 -36 -28 -38 -29 -38 -8 0 56 49 107 202
209 126 85 153 120 153 199 0 48 -4 57 -33 83 -18 16 -43 29 -57 29 -22 0 -24
-2 -15 -26z"/>
<path d="M11208 10261 c-29 -26 -33 -35 -33 -83 0 -79 27 -114 153 -199 153
-102 202 -153 202 -209 0 -21 -2 -20 -37 8 -76 59 -102 64 -170 32 -80 -36
-112 -144 -58 -194 24 -23 72 -42 81 -33 3 2 0 26 -6 54 -19 86 20 133 97 118
86 -16 110 -91 58 -180 -125 -215 -437 -64 -384 186 10 46 26 71 113 174 21
25 36 48 33 51 -11 11 -107 -49 -132 -81 -45 -60 -57 -107 -54 -202 3 -68 9
-98 27 -133 53 -102 133 -154 237 -153 85 0 120 19 232 125 54 51 108 98 118
104 16 10 18 15 9 30 -9 15 -23 19 -57 17 l-45 -1 -33 86 c-44 117 -64 147
-159 233 -119 108 -150 174 -120 253 9 24 7 26 -15 26 -14 0 -39 -13 -57 -29z"/>
<path d="M284 10270 c-11 -4 -33 -22 -47 -40 -23 -27 -27 -41 -27 -95 0 -57 3
-68 30 -98 17 -20 80 -61 151 -98 109 -57 169 -103 169 -130 0 -5 -20 2 -43
16 -49 28 -95 32 -136 10 -59 -30 -110 -119 -97 -170 11 -42 33 -55 92 -55
l55 0 -20 26 c-41 52 -19 115 48 135 54 16 94 -6 116 -65 29 -77 4 -155 -67
-206 -36 -26 -49 -30 -107 -30 -50 0 -76 6 -106 23 -90 51 -140 166 -116 272
12 54 28 76 100 136 40 35 42 64 4 54 -81 -19 -144 -111 -151 -220 -8 -126 39
-233 130 -292 36 -24 53 -28 127 -31 81 -3 89 -2 133 27 26 17 69 58 95 93 26
34 68 84 93 111 43 47 44 49 25 63 -13 10 -32 13 -61 8 l-41 -6 -7 42 c-11 67
-40 114 -113 176 -139 122 -179 167 -191 217 -8 31 -9 60 -3 86 11 52 6 58
-35 41z"/>
<path d="M12478 10275 c-3 -3 -2 -24 3 -46 6 -26 5 -55 -3 -86 -12 -50 -52
-95 -191 -217 -73 -62 -102 -109 -113 -176 l-7 -42 -41 6 c-29 5 -47 2 -61 -8
-19 -14 -19 -16 21 -58 22 -24 56 -63 74 -88 96 -129 138 -153 255 -148 69 2
88 7 123 31 156 103 179 369 42 478 -46 36 -90 48 -90 24 0 -10 14 -29 31 -44
72 -60 88 -82 100 -136 24 -106 -26 -221 -116 -272 -30 -17 -56 -23 -106 -23
-58 0 -71 4 -107 30 -71 51 -96 129 -67 206 22 59 62 81 116 65 67 -20 89 -83
48 -135 l-20 -26 55 0 c59 0 81 13 92 55 13 51 -38 140 -97 170 -41 22 -87 18
-136 -10 -23 -14 -43 -21 -43 -16 0 27 60 73 169 130 71 37 134 78 151 98 27
30 30 41 30 98 0 60 -3 68 -32 99 -32 33 -69 52 -80 41z"/>
<path d="M1253 9984 c-141 -68 -236 -217 -277 -431 -29 -152 -28 -145 -3 -141
20 3 23 10 29 82 17 182 108 340 272 466 71 55 62 64 -21 24z"/>
<path d="M11480 10003 c1 -5 21 -24 46 -43 72 -55 168 -163 201 -227 40 -74
61 -148 71 -243 6 -67 9 -75 29 -78 25 -4 26 -11 -3 141 -41 216 -137 364
-279 432 -58 27 -65 29 -65 18z"/>
<path d="M470 9994 c0 -5 35 -25 78 -44 106 -47 185 -126 240 -240 44 -90 72
-183 72 -236 0 -17 7 -38 17 -45 15 -13 16 -8 10 66 -18 225 -109 386 -260
460 -71 34 -157 56 -157 39z"/>
<path d="M12235 9982 c-192 -66 -302 -233 -322 -487 -6 -74 -5 -79 10 -66 10
7 17 28 17 45 0 53 28 146 72 236 55 114 134 193 240 240 43 19 78 38 78 43 0
12 -42 7 -95 -11z"/>
<path d="M1154 9416 c-19 -51 37 -99 74 -63 15 16 15 20 2 45 -18 31 -66 43
-76 18z"/>
<path d="M11575 9406 c-29 -44 3 -79 51 -57 21 9 25 17 22 44 -2 26 -8 33 -30
35 -20 2 -31 -4 -43 -22z"/>
<path d="M652 9404 c-27 -18 -29 -55 -4 -77 25 -23 38 -21 56 5 21 29 20 58
-1 74 -23 17 -24 17 -51 -2z"/>
<path d="M12098 9406 c-22 -16 -23 -45 -2 -74 18 -27 36 -28 57 -4 23 26 21
58 -5 76 -27 19 -28 19 -50 2z"/>
<path d="M855 9362 c-67 -23 -110 -55 -125 -93 -12 -27 -11 -36 4 -64 18 -33
96 -86 96 -65 0 7 -8 25 -17 42 -18 29 -18 30 10 53 63 55 157 57 210 4 28
-28 28 -31 13 -54 -9 -13 -16 -29 -16 -35 0 -22 39 -8 65 22 24 28 27 39 23
85 -5 59 -25 88 -75 109 -44 19 -128 17 -188 -4z"/>
<path d="M11755 9367 c-49 -23 -68 -52 -73 -110 -4 -46 -1 -57 23 -85 26 -30
65 -44 65 -22 0 6 -7 22 -16 35 -15 23 -15 26 13 54 53 53 147 51 210 -4 28
-23 28 -24 11 -53 -26 -44 -23 -55 11 -38 35 19 81 72 81 94 0 36 -39 80 -95
107 -68 34 -181 44 -230 22z"/>
<path d="M1212 9308 c-19 -19 -14 -63 8 -83 27 -24 73 -10 78 23 8 51 -53 93
-86 60z"/>
<path d="M11514 9296 c-22 -35 -15 -69 18 -80 34 -12 68 14 68 54 0 52 -57 70
-86 26z"/>
<path d="M562 9298 c-17 -17 -15 -64 4 -83 10 -10 29 -15 48 -13 27 3 32 8 40
40 7 27 6 41 -4 52 -15 19 -71 21 -88 4z"/>
<path d="M12150 9294 c-10 -11 -11 -25 -4 -52 8 -32 13 -37 40 -40 19 -2 38 3
48 13 19 19 21 66 4 83 -17 17 -73 15 -88 -4z"/>
<path d="M1530 9242 c-48 -48 -63 -141 -35 -209 8 -20 13 -38 11 -40 -2 -2
-20 16 -40 40 -41 51 -76 67 -76 36 0 -11 8 -26 18 -34 9 -7 28 -23 42 -34
l25 -20 -58 -1 c-53 0 -62 -3 -88 -31 -68 -73 -35 -199 52 -199 54 0 62 10 26
34 -46 31 -50 85 -8 126 65 65 145 20 165 -92 14 -76 -42 -145 -141 -174 -101
-29 -202 5 -287 97 -51 55 -115 163 -103 175 3 3 19 -2 36 -10 38 -20 85 -21
101 -1 15 18 5 35 -23 35 -68 0 -136 97 -160 225 l-12 70 -40 0 -39 0 -12 -68
c-24 -129 -81 -206 -169 -228 -53 -13 -60 -39 -19 -66 22 -14 34 -15 77 -6 29
6 53 10 55 8 2 -2 -8 -25 -22 -52 -82 -163 -328 -235 -440 -130 -85 81 -56
227 45 227 22 0 47 -8 64 -22 23 -18 26 -27 22 -59 -3 -21 -15 -52 -27 -69
l-21 -30 30 0 c17 0 42 11 61 27 30 25 32 30 28 78 -7 87 -66 141 -145 134
l-41 -4 44 47 c46 49 52 62 33 74 -6 3 -37 -21 -71 -57 -34 -35 -58 -56 -54
-46 28 84 37 133 31 174 -9 61 -41 93 -94 93 -54 0 -69 -7 -87 -42 -19 -36
-11 -48 31 -48 29 0 35 -5 49 -40 20 -50 20 -77 0 -220 -21 -147 -12 -185 55
-250 50 -49 102 -70 173 -70 105 0 235 69 311 166 23 29 45 53 49 53 22 2 -59
-160 -120 -241 -33 -44 -39 -48 -80 -48 -57 0 -76 -11 -147 -86 -56 -59 -64
-64 -102 -64 l-42 0 -17 56 c-16 55 -16 56 -35 37 -60 -59 -28 -173 58 -209
46 -20 65 -18 107 11 20 14 39 25 42 25 6 0 -36 -61 -120 -174 -88 -118 -131
-190 -160 -268 -83 -220 -26 -452 129 -524 94 -44 193 -25 230 45 19 39 19
115 -1 146 -18 28 -67 47 -100 39 -22 -6 -34 -24 -16 -24 5 0 27 -16 50 -36
53 -45 56 -80 11 -118 -54 -46 -136 -25 -179 46 -37 61 -22 117 72 276 71 120
83 171 48 214 -12 16 -39 33 -63 39 -23 7 -46 16 -51 20 -15 13 132 237 157
239 4 0 7 -12 7 -27 0 -109 187 -184 244 -98 26 40 21 46 -33 39 -45 -6 -50
-4 -66 19 -21 33 -14 69 32 162 32 63 35 75 29 128 -6 56 -4 61 34 118 47 69
120 215 120 240 0 10 5 21 10 24 6 4 10 -13 10 -42 5 -460 4 -448 21 -451 25
-5 33 104 24 316 -5 127 -4 173 4 168 6 -4 11 -13 11 -19 0 -7 23 -50 51 -97
74 -122 91 -166 94 -240 2 -55 9 -79 49 -154 70 -136 60 -196 -33 -196 -39 0
-41 -2 -31 -20 16 -30 68 -53 102 -46 79 16 134 96 124 180 l-5 51 20 -25 c51
-64 169 -253 169 -271 0 -2 -25 -4 -56 -5 -49 0 -60 -4 -80 -28 -18 -20 -24
-39 -24 -73 0 -57 16 -91 87 -178 31 -38 62 -84 70 -102 36 -88 -6 -194 -83
-209 -67 -12 -114 25 -114 90 1 49 15 71 61 90 l34 15 -47 1 c-40 0 -50 -4
-73 -32 -24 -28 -27 -39 -23 -86 4 -45 10 -59 41 -90 33 -32 43 -36 100 -40
47 -3 74 1 100 13 120 57 180 238 142 426 -28 140 -72 221 -281 518 -24 35
-42 66 -40 69 3 2 26 -14 51 -36 48 -42 85 -55 121 -42 66 25 87 132 37 186
l-26 28 -9 -24 c-36 -95 -55 -99 -129 -32 -84 76 -127 102 -171 102 -35 0 -41
4 -69 48 -36 55 -109 205 -109 223 0 6 15 -6 33 -29 107 -133 298 -211 418
-171 48 16 93 52 121 96 19 32 23 50 22 118 -1 44 -11 118 -23 165 -35 144
-27 195 42 240 35 22 37 25 21 37 -32 24 -92 16 -124 -15z"/>
<path d="M11146 9257 c-16 -12 -14 -15 21 -37 69 -45 77 -96 42 -240 -12 -47
-22 -121 -23 -165 -1 -68 3 -86 22 -118 28 -44 73 -80 121 -96 120 -40 311 38
419 171 17 23 32 35 32 29 0 -18 -73 -168 -109 -223 -28 -44 -34 -48 -69 -48
-44 0 -87 -26 -171 -102 -74 -67 -93 -63 -129 32 l-9 24 -26 -28 c-50 -54 -29
-161 37 -186 37 -14 74 0 126 47 28 25 50 41 50 36 0 -10 -50 -84 -154 -228
-167 -234 -222 -460 -155 -641 43 -114 119 -169 226 -162 57 4 67 8 100 40 31
31 37 45 41 90 4 47 1 58 -23 86 -23 28 -33 32 -73 32 l-47 -1 34 -15 c46 -19
60 -41 61 -90 1 -118 -156 -126 -199 -11 -28 72 -10 130 72 232 71 87 87 121
87 178 0 34 -6 53 -24 73 -20 24 -31 28 -80 28 -31 1 -56 3 -56 5 0 18 117
205 168 270 l19 24 -4 -50 c-8 -84 47 -164 125 -179 34 -7 86 16 102 46 10 19
8 20 -33 20 -93 0 -101 61 -27 204 41 81 49 104 44 131 -9 50 19 128 86 240
33 55 60 105 60 112 0 6 5 15 11 19 8 5 9 -41 4 -168 -9 -212 -1 -321 24 -316
14 3 16 27 18 208 2 297 2 292 13 285 6 -3 10 -14 10 -24 0 -25 73 -171 120
-240 38 -57 40 -62 34 -118 -6 -53 -3 -65 29 -128 46 -93 53 -129 32 -162 -16
-23 -21 -25 -66 -19 -54 7 -59 1 -33 -39 57 -86 244 -11 244 98 0 15 3 27 6
27 17 0 167 -216 161 -233 -2 -6 -24 -16 -49 -24 -28 -8 -56 -24 -68 -41 -35
-43 -23 -94 48 -214 94 -159 109 -215 72 -276 -43 -71 -125 -92 -179 -46 -45
38 -42 73 11 118 23 20 45 36 50 36 18 0 6 18 -16 24 -33 8 -82 -11 -100 -39
-20 -31 -20 -107 -1 -146 37 -70 136 -89 230 -45 155 72 212 304 129 524 -31
83 -71 148 -188 306 -53 71 -94 131 -92 133 2 2 21 -7 41 -22 43 -29 62 -31
108 -11 86 36 118 150 58 209 -19 19 -19 18 -35 -37 l-17 -56 -42 0 c-38 0
-46 5 -102 64 -71 75 -90 86 -147 86 -41 0 -47 4 -80 48 -61 81 -142 243 -120
241 4 0 26 -24 49 -53 76 -97 206 -166 311 -166 71 0 123 21 173 70 67 65 76
103 55 250 -20 143 -20 170 0 220 14 35 20 40 49 40 42 0 50 12 31 48 -18 35
-33 42 -87 42 -53 0 -85 -32 -94 -93 -6 -41 3 -90 31 -174 4 -10 -20 11 -54
46 -34 36 -65 60 -71 57 -19 -12 -13 -25 33 -74 l44 -47 -41 4 c-79 7 -138
-47 -145 -134 -4 -48 -2 -53 28 -78 19 -16 44 -27 61 -27 l30 0 -21 30 c-12
17 -24 48 -27 69 -4 32 -1 41 22 59 38 30 95 29 123 -1 45 -48 48 -126 7 -185
-67 -95 -271 -85 -389 20 -40 34 -105 133 -94 143 2 2 26 -2 55 -8 43 -9 55
-8 77 6 41 27 34 53 -19 66 -89 22 -144 97 -169 229 l-12 67 -39 0 -40 0 -12
-70 c-24 -128 -92 -225 -160 -225 -28 0 -38 -17 -23 -35 16 -20 63 -19 101 1
17 8 33 13 36 10 11 -11 -50 -118 -98 -171 -86 -94 -192 -130 -292 -101 -99
29 -155 98 -141 174 20 112 100 157 165 92 42 -41 38 -95 -8 -126 -26 -17 -29
-23 -17 -28 53 -21 106 5 124 60 16 49 5 97 -31 134 -27 26 -38 30 -87 30
l-57 1 25 20 c14 11 33 27 43 34 9 8 17 23 17 34 0 31 -35 15 -76 -36 -20 -24
-38 -42 -40 -40 -2 2 3 20 11 40 43 104 -14 237 -102 237 -22 0 -47 -6 -57
-13z"/>
<path d="M488 9183 c-39 -45 -21 -103 32 -103 52 0 80 69 42 103 -24 22 -55
22 -74 0z"/>
<path d="M12237 9182 c-21 -23 -22 -51 -1 -80 32 -46 110 -13 96 41 -13 54
-63 74 -95 39z"/>
<path d="M1282 9178 c-7 -7 -12 -26 -12 -43 0 -39 16 -55 55 -55 46 0 58 12
50 49 -11 49 -65 77 -93 49z"/>
<path d="M11453 9175 c-27 -19 -41 -74 -22 -86 20 -13 73 -11 87 3 7 7 12 26
12 43 0 52 -34 70 -77 40z"/>
<path d="M904 8280 c-33 -13 -54 -50 -54 -92 0 -52 20 -68 86 -68 68 0 94 22
94 78 0 63 -68 107 -126 82z"/>
<path d="M11830 8283 c-58 -21 -81 -102 -40 -143 26 -26 120 -28 144 -4 18 18
21 76 6 105 -19 34 -74 55 -110 42z"/>
<path d="M920 8083 c0 -60 -42 -453 -55 -516 -30 -147 -76 -246 -144 -311
l-29 -28 42 -67 c90 -139 135 -302 171 -623 14 -125 14 -151 0 -275 -37 -324
-81 -485 -171 -624 l-42 -67 29 -28 c68 -65 114 -164 144 -311 13 -63 55 -456
55 -516 0 -32 24 -13 37 29 6 21 12 95 12 162 2 241 81 499 188 614 l25 26
-40 69 c-84 141 -130 295 -182 601 l-30 182 30 183 c52 305 99 461 181 599
l41 70 -25 26 c-107 115 -186 373 -188 614 0 67 -6 141 -12 162 -13 42 -37 61
-37 29z m50 -540 c19 -101 32 -143 67 -212 52 -101 52 -122 -3 -265 -19 -48
-40 -116 -48 -150 -13 -55 -46 -270 -46 -298 0 -8 -3 -8 -9 -3 -5 6 -19 87
-31 180 -26 211 -42 286 -74 367 l-26 63 44 90 c48 97 73 186 83 289 3 36 9
66 13 66 3 0 17 -57 30 -127z m-21 -1443 c20 -152 43 -253 82 -355 58 -157 59
-174 6 -276 -35 -69 -48 -111 -67 -212 -13 -70 -27 -127 -30 -127 -4 0 -10 30
-13 66 -10 103 -35 192 -83 289 l-44 90 26 63 c32 81 48 156 74 367 28 221 32
229 49 95z"/>
<path d="M11848 8073 c-6 -16 -14 -104 -19 -198 -12 -269 -79 -482 -186 -597
l-25 -26 40 -69 c84 -141 130 -295 182 -601 l31 -183 -32 -182 c-52 -309 -98
-460 -181 -600 l-40 -69 25 -26 c107 -115 186 -373 188 -614 0 -67 6 -141 12
-162 13 -42 37 -61 37 -29 0 46 41 444 51 498 28 150 78 262 147 329 l30 28
-42 67 c-91 140 -135 303 -171 627 -15 135 -15 148 5 310 36 296 81 454 166
585 l42 67 -30 28 c-69 67 -119 179 -147 329 -10 54 -51 452 -51 497 0 27 -19
22 -32 -9z m25 -469 c10 -103 35 -192 83 -289 l44 -90 -26 -63 c-32 -81 -48
-156 -74 -367 -12 -93 -26 -174 -31 -180 -6 -5 -9 -5 -9 3 0 27 -33 242 -44
293 -8 31 -29 98 -49 150 -56 150 -56 168 -4 270 35 69 48 111 67 212 13 70
27 127 30 127 4 0 10 -30 13 -66z m27 -1599 c26 -211 42 -286 74 -367 l26 -63
-44 -90 c-48 -97 -73 -186 -83 -289 -3 -36 -9 -66 -13 -66 -3 0 -17 57 -30
127 -19 101 -32 143 -67 212 -52 102 -52 120 4 270 20 52 41 119 49 150 11 51
44 266 44 293 0 8 3 8 9 3 5 -6 19 -86 31 -180z"/>
<path d="M365 5476 c-120 -55 -187 -216 -163 -391 19 -136 69 -232 258 -490
32 -44 57 -81 56 -83 -2 -2 -21 8 -41 23 -43 29 -62 31 -108 11 -86 -36 -118
-150 -58 -209 19 -19 19 -18 35 37 l17 56 42 0 c38 0 46 -5 102 -64 71 -75 90
-86 147 -86 41 0 47 -4 80 -47 61 -82 141 -244 120 -243 -4 0 -23 22 -42 47
-72 96 -211 173 -312 173 -77 0 -128 -20 -179 -70 -67 -65 -76 -103 -55 -250
20 -143 20 -170 0 -220 -14 -35 -20 -40 -49 -40 -42 0 -50 -12 -31 -48 18 -35
33 -42 87 -42 53 0 85 32 94 93 6 41 -3 90 -31 174 -4 10 20 -11 54 -46 34
-36 65 -60 71 -57 19 12 13 25 -33 74 l-44 47 41 -4 c75 -7 136 46 145 126 8
70 -28 113 -94 113 l-25 0 21 -30 c12 -17 24 -48 27 -69 4 -32 1 -41 -22 -59
-17 -14 -42 -22 -64 -22 -101 0 -130 146 -45 226 111 106 358 34 440 -128 14
-28 24 -51 22 -53 -2 -2 -26 2 -55 8 -43 9 -55 8 -77 -6 -41 -27 -34 -53 19
-66 88 -22 145 -99 169 -228 l12 -68 39 0 40 0 12 70 c24 128 92 225 160 225
28 0 38 17 23 35 -16 20 -63 19 -101 -1 -17 -8 -33 -13 -36 -10 -12 12 52 120
103 175 85 92 186 126 287 97 99 -29 155 -98 141 -174 -20 -112 -100 -157
-165 -92 -42 41 -38 95 8 126 26 17 29 23 17 28 -53 21 -106 -5 -124 -60 -16
-49 -5 -97 31 -134 27 -26 38 -30 87 -30 l57 -1 -25 -20 c-14 -11 -33 -27 -42
-34 -10 -8 -18 -23 -18 -34 0 -31 35 -15 76 36 20 24 38 42 40 40 2 -2 -3 -20
-11 -40 -43 -104 14 -237 102 -237 22 0 47 6 57 13 16 12 14 15 -21 37 -69 45
-77 96 -42 240 12 47 22 121 23 165 1 68 -3 86 -22 118 -28 44 -73 80 -121 96
-120 40 -311 -38 -418 -171 -18 -23 -33 -35 -33 -29 0 18 73 168 109 224 28
43 34 47 69 47 44 0 87 26 171 102 74 67 93 63 129 -32 l9 -24 26 28 c50 54
29 161 -37 186 -36 13 -73 0 -121 -42 -25 -22 -48 -38 -51 -36 -2 3 16 34 40
69 209 297 253 378 281 518 38 188 -22 369 -142 426 -26 12 -53 16 -100 13
-57 -4 -67 -8 -100 -40 -31 -31 -37 -45 -41 -90 -4 -47 -1 -58 23 -86 23 -28
33 -32 73 -32 l47 1 -34 15 c-46 19 -60 41 -61 90 -1 118 156 126 199 11 28
-72 10 -130 -73 -232 -70 -87 -86 -121 -86 -178 0 -34 6 -53 24 -73 20 -24 31
-28 80 -28 31 -1 56 -3 56 -5 0 -18 -118 -207 -169 -271 l-20 -25 5 51 c10 84
-45 164 -124 180 -34 7 -86 -16 -102 -46 -10 -19 -8 -20 33 -20 91 0 101 -61
31 -196 -40 -75 -47 -99 -49 -154 -3 -74 -20 -118 -94 -240 -28 -47 -51 -90
-51 -97 0 -6 -5 -15 -11 -19 -8 -5 -9 41 -4 168 9 212 1 321 -24 316 -17 -3
-16 9 -21 -451 0 -29 -4 -46 -10 -42 -5 3 -10 14 -10 24 0 25 -73 171 -120
240 -38 57 -40 62 -34 118 6 53 3 65 -29 128 -46 93 -53 129 -32 162 16 23 21
25 66 19 54 -7 59 -1 33 39 -57 88 -243 12 -244 -100 l-1 -30 -43 47 c-50 55
-130 183 -122 196 3 6 21 13 40 16 19 4 49 20 67 37 28 27 31 34 27 74 -4 30
-25 77 -66 147 -94 159 -109 215 -72 276 43 71 125 92 179 46 45 -38 42 -73
-11 -118 -23 -20 -45 -36 -50 -36 -18 0 -6 -18 16 -24 33 -8 82 11 100 39 22
34 20 113 -4 152 -40 66 -133 82 -225 39z"/>
<path d="M12253 5480 c-18 -10 -39 -33 -48 -49 -19 -39 -19 -115 1 -146 18
-28 67 -47 100 -39 22 6 34 24 16 24 -5 0 -27 16 -50 36 -53 45 -56 80 -11
118 54 46 136 25 179 -46 37 -61 22 -117 -72 -276 -77 -131 -86 -178 -39 -221
17 -16 48 -33 68 -38 20 -4 38 -13 40 -19 5 -14 -106 -181 -141 -213 l-26 -24
0 29 c0 110 -187 186 -244 99 -26 -40 -21 -46 33 -39 45 6 50 4 66 -19 21 -33
14 -69 -32 -162 -32 -63 -35 -75 -29 -128 6 -56 4 -61 -34 -118 -47 -69 -120
-215 -120 -240 0 -10 -4 -21 -10 -24 -11 -7 -11 -12 -13 285 -2 181 -4 205
-18 208 -25 5 -33 -104 -24 -316 5 -127 4 -173 -4 -168 -6 4 -11 13 -11 19 0
7 -27 57 -60 112 -67 112 -95 190 -86 240 5 27 -3 50 -44 131 -74 144 -66 204
29 204 39 0 41 2 31 20 -16 30 -68 53 -102 46 -78 -15 -133 -95 -125 -179 l4
-50 -19 24 c-51 65 -168 252 -168 270 0 2 25 4 56 5 49 0 60 4 80 28 18 20 24
39 24 73 0 57 -16 91 -87 178 -31 39 -62 84 -70 102 -36 88 6 194 83 209 67
12 114 -25 114 -90 -1 -49 -15 -71 -61 -90 l-34 -15 47 -1 c40 0 50 4 73 32
24 28 27 39 23 86 -4 45 -10 59 -41 90 -33 32 -43 36 -100 40 -77 5 -120 -12
-171 -68 -103 -115 -110 -336 -16 -537 35 -75 68 -126 218 -342 29 -41 52 -79
52 -84 0 -5 -22 11 -50 36 -52 47 -89 61 -126 47 -66 -25 -87 -132 -37 -186
l26 -28 9 24 c36 95 55 99 129 32 84 -76 127 -102 171 -102 35 0 41 -4 69 -47
36 -56 109 -206 109 -224 0 -6 -15 6 -32 29 -60 74 -142 130 -240 163 -124 42
-233 11 -295 -83 -25 -37 -28 -50 -27 -122 1 -45 11 -119 23 -166 35 -144 27
-195 -42 -240 -35 -22 -37 -25 -21 -37 10 -7 35 -13 57 -13 88 0 145 133 102
237 -8 20 -13 38 -11 40 2 2 20 -16 40 -40 41 -51 76 -67 76 -36 0 11 -8 26
-17 34 -10 7 -29 23 -43 34 l-25 20 57 1 c49 0 60 4 87 30 70 71 38 200 -50
200 -54 0 -62 -10 -26 -34 46 -31 50 -85 8 -126 -65 -65 -145 -20 -165 92 -14
76 42 145 141 174 100 29 206 -7 292 -101 48 -53 109 -160 98 -171 -3 -3 -19
2 -36 10 -38 20 -85 21 -101 1 -15 -18 -5 -35 23 -35 68 0 136 -97 160 -225
l12 -70 40 0 39 0 12 67 c25 132 80 207 169 229 53 13 60 39 19 66 -22 14 -34
15 -77 6 -29 -6 -53 -10 -55 -8 -11 10 54 109 94 143 119 105 321 115 389 20
41 -59 38 -137 -7 -185 -28 -30 -85 -31 -123 -1 -23 18 -26 27 -22 59 3 21 15
52 27 69 l21 30 -25 0 c-66 0 -102 -43 -94 -113 9 -80 70 -133 145 -126 l41 4
-44 -47 c-46 -49 -52 -62 -33 -74 6 -3 37 21 71 57 34 35 58 56 54 46 -28 -84
-37 -133 -31 -174 9 -61 41 -93 94 -93 54 0 69 7 87 42 19 36 11 48 -31 48
-29 0 -35 5 -49 40 -20 50 -20 77 0 220 21 147 12 185 -55 250 -51 50 -102 70
-179 70 -101 0 -240 -77 -312 -173 -19 -25 -38 -47 -42 -47 -21 -1 59 161 120
243 33 43 39 47 80 47 57 0 76 11 147 86 56 59 64 64 102 64 l42 0 17 -56 c16
-55 16 -56 35 -37 60 59 28 173 -58 209 -46 20 -65 18 -108 -11 -20 -15 -39
-25 -41 -23 -1 2 24 39 56 83 189 258 239 354 258 490 17 126 -15 252 -83 334
-62 73 -193 103 -262 61z"/>
<path d="M866 4664 c-18 -18 -21 -76 -6 -105 16 -28 68 -52 99 -44 67 17 96
100 51 145 -26 26 -120 28 -144 4z"/>
<path d="M11790 4660 c-45 -45 -16 -128 51 -145 31 -8 83 16 99 44 15 29 12
87 -6 105 -24 24 -118 22 -144 -4z"/>
<path d="M1299 3716 c-44 -21 -35 -106 11 -106 28 0 59 32 66 66 5 28 3 32
-24 42 -21 7 -36 7 -53 -2z"/>
<path d="M11446 3717 c-25 -8 -27 -13 -22 -41 3 -17 16 -39 27 -48 41 -35 79
-16 79 38 0 47 -34 68 -84 51z"/>
<path d="M477 3699 c-26 -36 5 -99 48 -99 26 0 55 29 55 56 0 56 -73 87 -103
43z"/>
<path d="M12236 3698 c-21 -30 -20 -61 2 -81 36 -33 82 -13 94 40 14 54 -64
87 -96 41z"/>
<path d="M788 3648 c-20 -12 -45 -36 -55 -55 -17 -33 -17 -35 2 -71 39 -72
190 -121 291 -93 59 16 86 50 92 114 4 46 1 57 -23 85 -26 30 -65 44 -65 22 0
-6 7 -22 16 -35 15 -23 15 -26 -13 -54 -53 -52 -147 -51 -210 3 l-27 24 19 35
c10 20 17 38 14 41 -2 3 -21 -5 -41 -16z"/>
<path d="M11970 3659 c0 -6 8 -24 18 -41 17 -29 17 -30 -11 -53 -63 -55 -157
-57 -210 -4 -28 28 -28 31 -13 54 9 13 16 29 16 35 0 22 -39 8 -65 -22 -24
-28 -27 -39 -23 -85 6 -64 33 -98 92 -114 95 -26 247 19 287 85 25 41 24 59
-7 96 -30 35 -84 67 -84 49z"/>
<path d="M566 3585 c-19 -19 -21 -66 -4 -83 17 -17 73 -15 88 4 10 11 11 25 4
52 -8 32 -13 37 -40 40 -19 2 -38 -3 -48 -13z"/>
<path d="M12150 3574 c-21 -55 -6 -84 45 -84 38 0 55 16 55 51 0 36 -24 59
-61 59 -22 0 -32 -6 -39 -26z"/>
<path d="M1217 3572 c-34 -37 -16 -92 29 -92 46 0 73 79 35 100 -28 15 -46 12
-64 -8z"/>
<path d="M11518 3579 c-37 -21 -8 -99 36 -99 29 0 46 18 46 50 0 46 -43 72
-82 49z"/>
<path d="M647 3472 c-24 -26 -21 -59 7 -77 49 -32 86 22 50 73 -18 27 -36 28
-57 4z"/>
<path d="M12096 3468 c-22 -31 -20 -61 5 -76 17 -11 25 -11 45 3 29 19 31 55
6 78 -25 23 -38 21 -56 -5z"/>
<path d="M1167 3447 c-13 -9 -18 -23 -15 -42 4 -42 49 -48 74 -10 29 45 -16
84 -59 52z"/>
<path d="M11569 3444 c-21 -25 8 -69 46 -69 26 0 30 4 33 30 6 47 -49 74 -79
39z"/>
<path d="M267 3360 c-94 -60 -143 -166 -135 -295 7 -109 70 -201 151 -220 38
-10 36 19 -4 54 -72 60 -88 82 -100 136 -24 106 26 221 116 272 57 32 158 32
206 0 76 -51 106 -141 71 -219 -25 -56 -63 -76 -116 -58 -64 21 -85 83 -46
133 l20 25 -33 6 c-111 21 -152 -87 -71 -184 55 -64 119 -76 191 -35 23 14 43
21 43 16 0 -27 -60 -73 -169 -130 -71 -37 -134 -78 -151 -98 -27 -30 -30 -41
-30 -98 0 -54 4 -68 27 -95 26 -32 68 -54 83 -45 4 3 4 23 -1 45 -6 27 -5 56
3 87 12 50 52 95 191 217 73 62 102 109 113 176 l7 42 41 -6 c29 -5 47 -2 61
8 19 14 19 16 -21 58 -22 24 -56 63 -74 88 -93 125 -134 150 -248 150 -69 0
-83 -3 -125 -30z"/>
<path d="M956 3358 c43 -257 95 -381 197 -474 47 -42 154 -101 164 -90 3 3
-10 17 -28 32 -76 61 -186 183 -216 239 -40 76 -64 159 -72 249 -5 64 -8 71
-28 74 -21 3 -22 0 -17 -30z"/>
<path d="M1425 3384 c-70 -18 -96 -34 -189 -123 -56 -53 -111 -101 -121 -107
-16 -10 -18 -15 -9 -30 9 -15 23 -19 57 -17 l45 1 33 -86 c44 -117 64 -147
159 -233 119 -108 150 -174 120 -253 -9 -24 -7 -26 15 -26 14 0 39 13 57 29
29 26 33 35 33 83 0 80 -28 116 -154 200 -152 101 -201 152 -201 208 0 21 2
20 38 -8 75 -59 101 -64 169 -32 80 36 112 144 58 194 -24 23 -72 42 -81 33
-3 -2 0 -27 6 -55 20 -90 -30 -140 -114 -112 -48 15 -69 43 -69 89 0 92 101
191 192 191 144 -1 251 -144 220 -292 -10 -46 -25 -68 -121 -180 -17 -21 -29
-41 -25 -44 10 -11 106 48 132 81 45 60 57 107 54 202 -4 97 -25 150 -82 212
-51 54 -158 90 -222 75z"/>
<path d="M11277 3379 c-79 -19 -136 -67 -179 -149 -18 -35 -24 -65 -27 -133
-3 -95 9 -142 54 -202 26 -33 122 -92 132 -81 4 3 -8 23 -25 44 -96 112 -111
134 -121 180 -32 149 75 291 220 292 91 0 192 -99 192 -191 0 -46 -21 -74 -69
-89 -84 -28 -134 22 -114 112 6 28 9 53 6 55 -9 9 -57 -10 -81 -33 -54 -50
-22 -158 58 -194 68 -32 94 -27 170 32 35 28 37 29 37 8 0 -56 -43 -101 -201
-208 -133 -90 -164 -132 -156 -212 6 -51 50 -100 92 -100 22 0 24 2 15 26 -30
79 1 145 120 253 95 86 115 116 159 233 l33 86 45 -1 c34 -2 48 2 57 17 9 15
7 20 -9 30 -11 6 -63 53 -116 104 -54 51 -112 99 -131 106 -47 20 -116 26
-161 15z"/>
<path d="M11807 3383 c-4 -3 -7 -25 -7 -47 0 -70 -28 -178 -66 -254 -35 -72
-132 -183 -223 -256 -47 -37 -33 -42 32 -11 144 68 240 216 281 432 28 146 27
143 7 143 -10 0 -21 -3 -24 -7z"/>
<path d="M12295 3374 c-43 -23 -71 -51 -123 -119 -25 -33 -64 -79 -86 -103
-40 -42 -40 -44 -21 -58 14 -10 32 -13 61 -8 l41 6 7 -42 c11 -67 40 -114 113
-176 139 -122 179 -167 191 -217 8 -31 9 -60 3 -87 -5 -22 -5 -42 -1 -45 15
-9 57 13 83 45 23 27 27 41 27 95 0 57 -3 68 -30 98 -17 20 -80 61 -151 98
-109 57 -169 103 -169 130 0 5 20 -2 43 -16 72 -41 136 -29 191 35 81 97 40
205 -71 184 l-33 -6 20 -25 c39 -50 18 -112 -46 -133 -53 -18 -91 2 -116 58
-35 78 -5 168 71 219 48 32 149 32 206 0 90 -51 140 -166 116 -272 -12 -54
-28 -76 -100 -136 -40 -35 -42 -64 -3 -54 80 19 143 111 150 220 8 126 -39
233 -130 292 -36 24 -53 28 -127 31 -64 2 -94 -2 -116 -14z"/>
<path d="M873 3369 c-7 -7 -13 -27 -13 -44 0 -52 -29 -145 -72 -235 -55 -113
-133 -192 -241 -240 -42 -19 -77 -39 -77 -44 0 -14 81 3 139 30 113 51 199
151 240 277 39 121 55 287 24 256z"/>
<path d="M11913 3305 c18 -226 115 -393 269 -465 65 -30 148 -49 148 -34 0 5
-35 25 -77 44 -108 48 -186 127 -241 240 -44 90 -72 183 -72 236 0 17 -7 38
-17 45 -15 13 -16 8 -10 -66z"/>
<path d="M926 3209 c-2 -8 -21 -70 -41 -139 -83 -285 -206 -449 -384 -511 -25
-9 -47 -23 -49 -31 -2 -10 26 -36 75 -70 216 -152 348 -365 370 -600 3 -38 9
-68 13 -68 13 0 40 75 51 145 14 87 56 187 114 275 54 81 181 204 258 251 31
18 57 36 57 39 0 4 -28 27 -62 52 -195 143 -323 344 -373 584 -17 83 -22 95
-29 73z m39 -244 c43 -132 113 -235 266 -399 l60 -64 -62 -49 c-109 -85 -226
-262 -274 -413 -10 -30 -21 -59 -25 -63 -4 -4 -19 27 -35 70 -47 133 -132 265
-258 399 -32 35 -57 68 -55 73 1 5 27 27 56 50 96 76 193 225 258 398 27 71
34 86 39 81 2 -2 15 -39 30 -83z"/>
<path d="M909 2828 c-7 -13 -27 -52 -45 -87 l-32 -64 29 -45 c30 -48 39 -102
16 -102 -7 0 -32 16 -55 36 -25 21 -49 34 -57 30 -24 -9 -104 -70 -105 -79 0
-5 22 -32 50 -60 47 -49 50 -51 72 -37 13 8 39 22 58 32 31 17 35 17 38 3 2
-9 -8 -34 -22 -55 -14 -22 -26 -48 -26 -57 1 -24 82 -186 95 -189 6 -2 30 36
54 85 l43 88 -31 55 c-38 67 -41 92 -8 82 12 -4 37 -20 55 -35 18 -16 37 -29
42 -29 11 0 113 89 119 102 5 14 -42 60 -84 82 -35 19 -35 19 -58 -1 -47 -43
-97 -56 -97 -26 0 10 16 41 35 69 l35 51 -42 86 c-24 47 -48 86 -55 87 -7 0
-18 -10 -24 -22z"/>
<path d="M11855 3183 c-46 -263 -177 -480 -382 -630 -35 -26 -63 -49 -63 -53
0 -3 26 -21 57 -39 77 -47 204 -170 258 -251 58 -88 100 -188 114 -275 11 -70
38 -145 51 -145 4 0 10 30 13 68 13 129 71 287 141 382 49 65 151 162 229 217
49 35 77 61 75 71 -2 8 -24 22 -49 31 -124 44 -233 149 -303 294 -40 82 -116
306 -116 342 0 32 -20 23 -25 -12z m45 -205 c34 -95 114 -246 165 -310 25 -32
68 -76 97 -99 29 -23 55 -45 56 -50 2 -5 -23 -38 -55 -73 -126 -134 -213 -269
-259 -399 -15 -43 -30 -74 -34 -70 -4 4 -15 33 -25 63 -48 151 -165 328 -274
413 l-62 49 58 62 c157 168 226 271 268 401 15 46 31 82 35 80 4 -2 17 -33 30
-67z"/>
<path d="M11812 2763 l-42 -86 35 -51 c19 -28 35 -59 35 -69 0 -30 -50 -17
-97 26 -23 20 -23 20 -58 1 -42 -22 -89 -68 -84 -82 6 -13 108 -102 119 -102
5 0 24 13 42 29 18 15 43 31 56 35 32 10 29 -15 -9 -82 l-31 -55 43 -88 c24
-49 49 -87 54 -85 13 3 94 165 95 189 0 9 -12 35 -26 57 -14 21 -24 46 -22 55
3 14 7 14 38 -3 19 -10 45 -24 58 -32 22 -14 25 -12 72 37 28 28 50 55 50 60
-1 9 -81 70 -105 79 -8 4 -32 -9 -57 -30 -23 -20 -48 -36 -55 -36 -23 0 -14
54 16 102 l29 46 -43 83 c-23 46 -48 85 -56 86 -9 2 -31 -31 -57 -84z"/>
<path d="M63 2550 c-85 -40 -84 -46 14 -86 l53 -22 58 24 c31 13 65 24 75 24
33 0 12 24 -41 45 -29 12 -57 26 -64 33 -17 17 -26 16 -95 -18z"/>
<path d="M12642 2568 c-7 -7 -35 -21 -64 -33 -53 -21 -74 -45 -41 -45 10 0 44
-11 76 -24 l57 -24 53 22 c98 40 99 46 15 86 -70 34 -79 35 -96 18z"/>
<path d="M1642 2532 c-23 -9 -41 -21 -39 -26 2 -6 25 -23 51 -40 l48 -29 54
29 c57 31 69 55 35 74 -28 15 -99 11 -149 -8z"/>
<path d="M11008 2539 c-32 -18 -20 -43 36 -73 l54 -29 48 29 c26 17 49 34 51
40 5 14 -85 44 -132 44 -22 0 -48 -5 -57 -11z"/>
<path d="M290 2479 c-37 -15 -68 -48 -75 -79 -14 -62 39 -128 177 -221 108
-73 155 -113 174 -150 7 -15 14 -30 14 -32 0 -2 -27 5 -60 16 -54 18 -67 19
-117 7 -77 -17 -113 -53 -113 -112 1 -61 44 -108 100 -108 18 0 20 4 13 23 -4
12 -8 39 -7 61 1 76 88 104 145 47 25 -25 29 -37 29 -84 0 -40 -6 -63 -22 -87
-40 -58 -72 -75 -141 -75 -105 0 -191 67 -223 171 -29 96 -9 170 72 267 31 37
54 71 50 74 -12 12 -88 -32 -120 -68 -51 -60 -69 -125 -64 -227 5 -97 20 -136
76 -195 69 -72 217 -100 307 -58 22 10 75 55 117 99 42 44 91 88 108 97 47 24
33 40 -34 38 -53 -2 -56 -1 -61 25 -25 121 -56 177 -172 308 -126 142 -136
158 -130 202 3 20 8 45 12 55 8 20 -14 22 -55 6z"/>
<path d="M12454 2474 c5 -10 10 -36 13 -56 6 -44 -4 -60 -130 -202 -116 -131
-147 -187 -172 -308 -5 -26 -8 -27 -61 -25 -67 2 -81 -14 -34 -38 17 -9 66
-53 108 -97 42 -44 95 -89 117 -99 90 -42 238 -14 307 58 56 59 71 98 76 195
5 102 -13 167 -64 227 -32 36 -108 80 -120 68 -4 -3 19 -37 50 -74 80 -97 101
-171 72 -265 -31 -105 -119 -173 -223 -173 -69 0 -101 17 -140 75 -17 24 -23
47 -23 87 0 47 4 59 29 84 57 57 144 29 145 -47 1 -22 -3 -49 -7 -61 -7 -19
-5 -23 13 -23 56 0 99 47 100 108 0 59 -36 95 -113 112 -50 12 -63 11 -117 -7
-33 -11 -60 -18 -60 -16 0 2 6 16 14 31 21 39 69 81 171 149 103 69 170 136
180 181 12 57 -34 115 -104 128 -31 7 -34 5 -27 -12z"/>
<path d="M1535 2407 c0 -94 -20 -127 -149 -237 -108 -92 -150 -149 -166 -226
-10 -49 -13 -53 -31 -43 -11 5 -33 9 -50 7 l-29 -3 46 -70 c75 -111 114 -155
168 -186 128 -73 303 -9 372 136 45 95 25 235 -44 316 -34 39 -98 77 -110 65
-3 -3 14 -28 37 -56 72 -86 91 -126 91 -201 0 -133 -91 -239 -205 -239 -65 0
-101 12 -139 48 -57 54 -71 133 -37 209 21 46 45 63 89 63 33 0 80 -32 91 -64
12 -31 -7 -75 -40 -92 -39 -20 -28 -34 24 -34 54 0 83 21 98 70 23 77 -33 163
-115 177 -49 8 -80 -2 -121 -38 -19 -17 -35 -26 -35 -20 0 23 78 96 165 154
175 118 223 182 189 252 -16 34 -70 85 -90 85 -5 0 -9 -33 -9 -73z"/>
<path d="M11206 2447 c-96 -91 -61 -162 149 -304 87 -58 165 -131 165 -154 0
-6 -16 3 -35 20 -41 36 -72 46 -121 38 -51 -8 -90 -42 -110 -92 -14 -38 -15
-52 -5 -85 15 -49 44 -70 98 -70 50 0 64 15 28 32 -36 16 -58 60 -46 91 21 54
93 83 143 56 11 -6 28 -29 39 -52 34 -76 20 -155 -37 -209 -38 -36 -74 -48
-139 -48 -114 0 -205 106 -205 239 0 75 19 115 91 201 23 28 40 53 37 56 -13
12 -77 -26 -111 -67 -69 -80 -88 -219 -43 -314 49 -103 144 -164 256 -165 110
0 170 46 284 215 l46 70 -29 3 c-17 2 -39 -2 -50 -7 -18 -10 -21 -6 -31 43
-16 77 -58 134 -166 226 -129 110 -149 143 -149 237 0 84 -7 89 -59 40z"/>
<path d="M522 2208 c8 -13 37 -34 64 -48 141 -70 241 -253 270 -494 6 -53 8
-58 20 -41 19 26 18 132 -2 208 -21 83 -74 184 -133 255 -58 69 -162 142 -205
142 -27 0 -28 -1 -14 -22z"/>
<path d="M12170 2189 c-110 -74 -208 -217 -244 -356 -20 -76 -21 -182 -2 -208
12 -17 14 -12 20 41 29 240 134 432 268 492 39 17 68 45 68 66 0 19 -56 0
-110 -35z"/>
<path d="M1249 2176 c-146 -52 -275 -269 -296 -496 l-5 -65 20 20 c14 13 27
48 37 100 43 210 152 365 306 435 l44 20 -35 -1 c-19 0 -51 -6 -71 -13z"/>
<path d="M11489 2171 c156 -75 263 -226 306 -436 10 -52 23 -87 37 -100 l20
-20 -5 65 c-18 200 -125 401 -253 476 -24 14 -65 27 -95 30 l-54 5 44 -20z"/>
<path d="M2466 1756 l-29 -54 29 -48 c17 -26 34 -49 40 -51 14 -5 44 84 44
130 0 90 -42 102 -84 23z"/>
<path d="M10260 1791 c-5 -11 -10 -37 -10 -58 0 -46 30 -135 44 -130 6 2 23
25 40 51 l29 48 -29 54 c-31 57 -55 69 -74 35z"/>
<path d="M2961 1714 c-57 -25 -96 -61 -125 -115 -16 -28 -25 -53 -22 -56 3 -4
23 8 44 25 112 96 134 111 180 121 148 31 291 -76 292 -220 0 -91 -98 -190
-192 -193 -32 -1 -45 5 -64 27 -46 54 -40 138 13 158 18 7 42 7 75 -1 27 -5
51 -10 53 -10 9 0 5 23 -12 57 -45 97 -189 62 -223 -54 -16 -52 -9 -78 35
-136 33 -43 34 -47 15 -47 -56 0 -105 48 -209 202 -85 126 -120 153 -199 153
-48 0 -57 -4 -83 -33 -16 -18 -29 -43 -29 -57 0 -22 2 -24 26 -15 79 30 145
-1 253 -120 86 -95 116 -115 233 -159 l86 -33 -1 -45 c-2 -34 2 -48 17 -57 15
-9 20 -7 30 9 6 10 53 64 104 118 52 54 101 115 109 135 22 51 21 137 0 194
-23 59 -99 130 -164 152 -59 20 -195 20 -242 0z"/>
<path d="M9593 1713 c-61 -21 -138 -94 -159 -150 -21 -55 -23 -132 -5 -187 9
-25 48 -75 110 -140 53 -56 101 -111 107 -121 10 -16 15 -18 30 -9 15 9 19 23
17 57 l-1 45 86 33 c117 44 147 64 233 159 108 119 174 150 253 120 24 -9 26
-7 26 15 0 42 -49 86 -100 92 -80 8 -122 -23 -213 -157 -107 -158 -151 -200
-207 -200 -19 0 -18 4 15 47 44 58 51 84 35 136 -34 116 -178 151 -223 54 -17
-34 -21 -57 -12 -57 2 0 26 5 53 10 33 8 57 8 75 1 53 -20 59 -104 13 -158
-72 -83 -256 38 -256 166 1 145 143 252 292 220 46 -10 68 -25 180 -121 21
-17 41 -29 44 -25 11 10 -48 106 -81 131 -55 43 -102 56 -189 55 -44 0 -100
-7 -123 -16z"/>
<path d="M1790 1699 c-148 -66 -215 -245 -141 -375 31 -54 75 -93 186 -168
l70 -46 3 29 c2 17 -2 39 -7 50 -10 18 -6 21 43 31 76 15 128 54 221 162 45
51 100 106 124 123 38 27 50 30 117 30 41 0 74 4 74 9 0 20 -51 74 -85 90 -70
34 -134 -14 -252 -189 -58 -87 -131 -165 -154 -165 -6 0 3 16 20 35 36 41 46
72 38 121 -8 51 -42 90 -92 110 -38 14 -52 15 -85 5 -49 -15 -70 -44 -70 -98
0 -52 11 -60 33 -23 20 32 63 51 93 39 32 -11 64 -58 64 -91 0 -44 -17 -68
-63 -89 -76 -34 -155 -20 -209 37 -36 38 -48 74 -48 139 0 114 106 205 239
205 75 0 115 -19 201 -91 28 -23 53 -40 56 -37 12 12 -26 76 -65 110 -78 67
-220 89 -311 47z"/>
<path d="M10788 1703 c-59 -20 -126 -76 -145 -121 -8 -19 -12 -37 -9 -40 3 -3
28 14 56 37 86 72 126 91 201 91 133 0 239 -91 239 -205 0 -65 -12 -101 -48
-139 -54 -57 -133 -71 -209 -37 -46 21 -63 45 -63 89 0 33 32 80 64 91 30 12
73 -7 93 -39 22 -37 33 -29 33 23 0 53 -20 82 -65 97 -65 22 -139 -11 -169
-74 -29 -62 -20 -113 32 -168 14 -16 20 -28 14 -28 -24 0 -96 77 -155 165
-118 175 -182 223 -252 189 -34 -16 -85 -70 -85 -90 0 -5 26 -8 58 -6 98 6
146 -24 262 -163 80 -96 141 -140 216 -155 49 -10 53 -13 43 -31 -5 -11 -9
-33 -7 -50 l3 -29 70 46 c111 75 155 114 186 168 74 130 7 309 -141 375 -55
25 -154 27 -222 4z"/>
<path d="M3542 1653 c-7 -12 -12 -38 -12 -58 0 -86 134 -143 237 -100 20 8 38
13 40 11 2 -2 -16 -20 -40 -40 -51 -41 -67 -76 -36 -76 11 0 26 8 34 18 7 9
23 28 34 42 l20 25 1 -58 c0 -53 3 -62 31 -88 73 -68 199 -35 199 52 0 54 -10
62 -34 26 -31 -46 -85 -50 -126 -8 -59 58 -29 129 66 157 68 19 110 8 153 -42
39 -43 65 -132 57 -188 -11 -67 -53 -141 -111 -195 -53 -48 -160 -109 -171
-98 -3 3 2 19 10 36 20 38 21 85 1 101 -18 15 -35 5 -35 -23 0 -68 -97 -136
-225 -160 l-70 -12 0 -40 0 -39 67 -12 c132 -25 207 -80 229 -169 13 -53 39
-60 66 -19 14 22 15 34 6 77 -6 29 -10 53 -8 55 2 2 24 -7 49 -19 121 -56 207
-232 176 -360 -29 -121 -164 -175 -247 -97 -30 28 -31 85 -1 123 18 23 27 26
59 22 21 -3 52 -15 69 -27 l30 -21 0 30 c0 17 -11 42 -27 61 -25 30 -30 32
-78 28 -87 -7 -141 -66 -134 -145 l4 -41 -47 44 c-49 46 -62 52 -74 33 -3 -6
21 -37 57 -70 35 -32 60 -59 57 -59 -4 0 -37 10 -72 21 -118 39 -206 5 -206
-80 0 -54 7 -69 42 -87 36 -19 48 -11 48 29 0 63 69 77 251 52 157 -22 194
-14 259 54 49 50 70 102 70 173 0 105 -69 235 -166 311 -29 23 -53 45 -53 49
-2 22 160 -59 242 -120 43 -33 47 -39 47 -80 0 -57 11 -76 86 -147 59 -56 64
-64 64 -102 l0 -42 -57 -17 -57 -17 28 -23 c72 -62 196 -5 212 98 4 25 -1 43
-20 71 -14 21 -26 40 -26 43 0 5 42 -24 215 -149 172 -123 283 -167 426 -169
193 -2 336 102 347 251 5 69 -14 113 -61 141 -39 24 -118 26 -152 4 -28 -18
-47 -67 -39 -100 6 -22 24 -34 24 -16 0 5 16 27 36 50 45 53 80 56 118 11 46
-54 25 -136 -46 -179 -61 -37 -117 -22 -276 72 -120 71 -171 83 -214 48 -17
-12 -33 -40 -41 -68 -8 -25 -18 -47 -24 -49 -13 -5 -181 107 -212 141 l-24 26
29 0 c110 0 186 187 99 244 -40 26 -46 21 -39 -33 6 -45 4 -50 -19 -66 -33
-21 -69 -14 -162 32 -63 32 -75 35 -128 29 -56 -6 -61 -4 -118 34 -69 47 -215
120 -240 120 -10 0 -21 5 -24 10 -7 11 -6 11 285 13 181 2 205 4 208 18 5 25
-104 33 -316 24 -127 -5 -173 -4 -168 4 4 6 13 11 19 11 7 0 61 29 121 65 110
65 190 92 238 80 18 -5 52 8 123 44 145 75 205 67 205 -28 0 -39 2 -41 20 -31
30 16 53 68 46 102 -16 79 -96 134 -180 124 l-51 -5 25 20 c64 51 253 169 271
169 2 0 4 -26 5 -57 1 -73 31 -103 101 -103 57 0 91 16 178 87 79 64 119 83
170 83 77 0 133 -43 142 -107 4 -32 0 -45 -22 -71 -22 -27 -34 -32 -68 -32
-50 1 -72 15 -91 61 l-15 34 -1 -47 c0 -40 4 -50 32 -73 28 -24 39 -27 86 -23
45 4 59 10 90 41 32 33 36 43 40 100 3 47 -1 74 -13 100 -57 120 -237 180
-426 143 -137 -27 -220 -73 -518 -281 -35 -25 -68 -45 -73 -45 -5 0 10 22 35
50 47 52 61 89 47 126 -25 66 -132 87 -186 37 l-28 -26 24 -9 c95 -36 99 -55
32 -129 -76 -83 -102 -127 -102 -170 0 -45 -14 -57 -158 -129 -112 -56 -142
-63 -90 -22 137 109 217 301 177 423 -17 48 -52 93 -96 120 -50 31 -152 31
-286 0 -152 -36 -202 -23 -253 65 -10 18 -11 18 -22 -3z"/>
<path d="M9220 1633 c-45 -69 -96 -77 -240 -42 -47 12 -121 22 -166 23 -72 1
-85 -2 -122 -27 -62 -41 -93 -94 -99 -169 -10 -123 67 -277 185 -370 52 -41
22 -34 -90 22 -144 72 -158 84 -158 129 0 43 -26 87 -102 170 -67 74 -63 93
32 129 l24 9 -28 26 c-54 50 -161 29 -186 -37 -13 -36 0 -73 42 -121 22 -25
38 -48 36 -51 -3 -2 -34 16 -69 40 -298 210 -381 255 -518 282 -189 37 -369
-23 -426 -143 -12 -26 -16 -53 -13 -100 4 -57 8 -67 40 -100 31 -31 45 -37 90
-41 47 -4 58 -1 86 23 28 23 32 33 31 73 0 42 -1 44 -10 22 -19 -47 -49 -70
-94 -70 -119 0 -128 155 -12 199 72 28 130 10 232 -72 87 -71 121 -87 178 -87
34 0 53 6 73 24 24 20 28 31 28 80 1 31 3 56 5 56 18 0 207 -118 271 -169 l25
-20 -51 5 c-84 10 -164 -45 -180 -124 -7 -34 16 -86 46 -102 19 -10 20 -8 20
33 0 93 61 101 205 26 71 -36 105 -49 123 -44 48 12 128 -15 238 -80 60 -36
114 -65 121 -65 6 0 15 -5 19 -11 5 -8 -41 -9 -168 -4 -212 9 -321 1 -316 -24
3 -14 27 -16 208 -18 291 -2 292 -2 285 -13 -3 -5 -14 -10 -24 -10 -25 0 -171
-73 -240 -120 -57 -38 -62 -40 -118 -34 -53 6 -65 3 -128 -29 -93 -46 -129
-53 -162 -32 -23 16 -25 21 -19 66 7 54 1 59 -39 33 -87 -57 -11 -244 99 -244
l29 0 -24 -26 c-31 -34 -199 -146 -212 -141 -6 2 -16 24 -24 49 -8 28 -24 56
-41 68 -43 35 -94 23 -214 -48 -159 -94 -215 -109 -276 -72 -71 43 -92 125
-46 179 38 45 73 42 118 -11 20 -23 36 -45 36 -50 0 -18 18 -6 24 16 8 33 -11
82 -39 100 -31 20 -107 20 -146 1 -71 -37 -90 -139 -43 -233 78 -157 306 -210
532 -122 69 27 173 93 347 220 44 32 81 57 83 56 2 -2 -8 -21 -23 -41 -29 -43
-31 -62 -11 -108 36 -86 150 -118 209 -58 19 19 18 19 -37 35 l-56 17 0 42 c0
38 5 46 64 102 75 71 86 90 86 147 0 41 4 47 48 80 81 61 243 141 242 120 0
-4 -22 -23 -47 -42 -96 -72 -173 -211 -173 -312 0 -77 20 -128 70 -179 65 -68
102 -76 259 -54 182 25 251 11 251 -52 0 -40 12 -48 48 -29 35 18 42 33 42 87
0 85 -88 119 -206 80 -35 -11 -68 -21 -72 -21 -3 0 22 27 57 59 36 33 60 64
57 70 -12 19 -25 13 -74 -33 l-47 -44 4 41 c7 79 -47 138 -134 145 -48 4 -53
2 -78 -28 -16 -18 -27 -44 -27 -61 l0 -30 28 21 c16 12 47 24 69 27 35 5 43 2
61 -22 66 -84 -21 -184 -132 -154 -147 40 -164 269 -31 417 37 41 130 101 140
90 2 -2 -2 -26 -8 -55 -9 -43 -8 -55 6 -77 27 -41 53 -34 66 19 22 89 97 144
229 169 l67 12 0 39 0 40 -70 12 c-128 24 -225 92 -225 160 0 28 -17 38 -35
23 -20 -16 -19 -63 1 -101 8 -17 13 -33 10 -36 -11 -11 -118 50 -171 98 -58
54 -100 128 -111 195 -8 56 18 145 57 188 43 50 85 61 153 42 95 -28 125 -99
66 -157 -41 -42 -95 -38 -126 8 -17 26 -23 29 -28 17 -21 -53 5 -106 60 -124
49 -16 97 -5 134 31 26 27 30 38 30 87 l1 57 20 -25 c11 -14 27 -33 34 -42 8
-10 23 -18 34 -18 31 0 15 35 -36 76 -24 20 -42 38 -40 40 2 2 20 -3 40 -11
104 -43 237 14 237 102 0 22 -6 47 -13 57 -12 16 -15 14 -37 -21z"/>
<path d="M632 1614 c-30 -20 -29 -59 2 -79 19 -12 30 -14 44 -6 40 21 35 101
-6 101 -10 0 -28 -7 -40 -16z"/>
<path d="M12100 1610 c-14 -26 -3 -68 22 -81 27 -14 68 13 68 46 0 46 -70 73
-90 35z"/>
<path d="M1152 1604 c-39 -27 -23 -84 24 -84 39 0 66 57 39 84 -20 20 -35 20
-63 0z"/>
<path d="M11585 1604 c-27 -27 0 -84 39 -84 47 0 63 57 24 84 -28 20 -43 20
-63 0z"/>
<path d="M830 1554 c-52 -22 -100 -73 -100 -105 0 -32 27 -68 70 -93 l33 -19
-7 29 c-15 58 -12 76 15 96 63 47 182 23 209 -43 11 -26 10 -32 -9 -53 -32
-34 -27 -50 9 -31 51 26 70 54 70 102 0 55 -22 98 -60 118 -39 20 -182 20
-230 -1z"/>
<path d="M11738 1554 c-37 -19 -58 -63 -58 -117 0 -48 19 -76 70 -102 36 -19
41 -3 9 31 -19 21 -20 27 -9 53 27 66 146 90 209 43 27 -20 30 -38 15 -96 l-7
-29 33 19 c43 25 70 61 70 93 0 33 -49 83 -104 105 -50 21 -190 21 -228 0z"/>
<path d="M566 1501 c-26 -29 -17 -73 17 -85 19 -7 34 -7 45 0 21 14 29 84 10
95 -22 15 -54 10 -72 -10z"/>
<path d="M12162 1511 c-19 -11 -11 -81 10 -95 28 -17 72 4 76 38 6 48 -46 83
-86 57z"/>
<path d="M1206 1494 c-3 -9 -6 -31 -6 -50 0 -27 5 -35 24 -40 58 -14 87 42 43
84 -27 26 -52 28 -61 6z"/>
<path d="M11532 1487 c-42 -44 -14 -97 44 -83 19 5 24 13 24 40 0 69 -27 86
-68 43z"/>
<path d="M200 1481 c-38 -11 -34 -33 10 -60 70 -44 86 -117 54 -263 -8 -40
-16 -107 -16 -149 -2 -96 21 -137 96 -177 44 -23 63 -27 136 -27 72 0 94 4
143 27 62 29 155 110 189 166 12 20 24 30 26 24 6 -18 -42 -114 -102 -207 -54
-83 -57 -85 -94 -85 -41 0 -82 -23 -157 -87 -55 -47 -93 -43 -119 11 l-19 39
-29 -32 c-18 -21 -28 -42 -28 -64 0 -72 75 -136 142 -122 28 7 29 6 18 -15
-11 -20 -10 -21 10 -10 21 11 22 10 15 -18 -14 -67 50 -142 122 -142 22 0 43
10 64 28 l32 29 -39 19 c-54 26 -58 64 -11 119 64 75 87 116 87 157 0 37 2 40
85 94 93 60 189 108 207 102 6 -2 -4 -14 -24 -26 -56 -34 -137 -127 -166 -189
-23 -49 -27 -71 -27 -143 0 -73 4 -92 27 -136 39 -74 81 -97 172 -97 39 1 106
8 148 17 152 32 225 17 269 -54 28 -46 49 -48 61 -5 18 69 -34 147 -108 161
-39 7 -128 1 -159 -11 -11 -4 3 16 33 46 28 30 52 58 52 62 0 15 -27 6 -56
-20 -67 -61 -65 -61 -58 -15 8 49 -10 82 -59 112 -38 24 -87 26 -127 5 -36
-19 -50 -43 -50 -89 0 -41 9 -46 28 -15 32 50 117 56 141 10 57 -106 -104
-208 -204 -129 -104 81 -76 279 59 426 37 40 121 91 132 79 2 -2 -3 -20 -11
-40 -22 -53 -19 -82 10 -101 34 -23 55 -20 55 7 0 12 9 41 19 64 24 51 93 94
194 120 l68 18 -3 45 -3 45 -85 5 c-47 3 -96 12 -110 19 -41 22 -79 62 -90 97
-8 24 -20 36 -44 44 -35 11 -75 49 -97 90 -7 14 -16 63 -19 110 l-5 85 -45 3
-46 3 -18 -69 c-26 -102 -68 -169 -119 -193 -23 -10 -52 -19 -64 -19 -27 0
-30 -21 -7 -55 19 -29 48 -32 101 -10 20 8 38 13 40 11 12 -11 -39 -95 -79
-132 -116 -106 -266 -150 -364 -105 -74 34 -108 104 -84 175 30 91 151 118
180 40 12 -31 -9 -87 -39 -106 -31 -19 -25 -28 19 -28 101 0 134 128 54 208
-32 32 -38 34 -81 28 -51 -7 -50 -5 9 58 26 28 37 56 21 56 -4 0 -32 -24 -62
-52 -29 -29 -50 -44 -46 -33 5 11 10 52 12 90 3 54 0 78 -14 104 -31 60 -94
90 -153 72z m868 -434 c2 -12 -1 -15 -12 -11 -22 8 -30 36 -9 32 10 -2 19 -11
21 -21z m-38 -44 c9 -8 10 -13 3 -13 -15 0 -43 28 -43 43 1 8 5 6 13 -3 7 -8
19 -21 27 -27z m-69 -2 c7 -19 21 -33 40 -40 41 -14 36 -21 -16 -21 l-45 0 0
45 c0 52 7 57 21 16z m-66 -59 l0 -47 45 -1 c25 0 50 -1 55 -2 6 -1 -44 -31
-109 -67 -66 -35 -121 -63 -123 -62 -1 2 26 55 60 119 34 64 64 114 67 111 3
-3 5 -26 5 -51z"/>
<path d="M12511 1473 c-60 -31 -76 -64 -76 -151 0 -42 4 -88 9 -102 6 -20 -3
-14 -46 28 -29 28 -57 52 -61 52 -16 0 -5 -28 21 -56 59 -63 60 -65 14 -58
-49 8 -82 -10 -112 -59 -24 -38 -26 -87 -5 -127 19 -36 43 -50 89 -50 41 0 46
9 15 28 -50 32 -56 117 -10 141 106 57 208 -104 129 -204 -81 -104 -279 -76
-426 59 -41 38 -91 121 -79 133 3 2 19 -3 36 -11 45 -24 86 -21 105 9 23 34
20 55 -6 55 -13 0 -42 9 -65 19 -51 24 -93 91 -119 193 l-18 69 -46 -3 -45 -3
-5 -85 c-3 -47 -12 -96 -19 -110 -22 -41 -62 -79 -97 -90 -24 -8 -36 -20 -44
-44 -11 -35 -49 -75 -90 -97 -14 -7 -63 -16 -110 -19 l-85 -5 -3 -45 -3 -46
69 -18 c102 -26 169 -68 193 -119 10 -23 19 -52 19 -64 0 -27 21 -30 55 -7 29
19 32 48 10 101 -8 20 -13 38 -11 40 11 12 95 -39 132 -79 106 -116 150 -266
105 -364 -34 -74 -104 -108 -175 -84 -91 30 -118 151 -40 180 31 12 87 -9 106
-39 19 -31 28 -26 28 15 0 46 -14 70 -50 89 -40 21 -89 19 -127 -5 -49 -30
-67 -63 -59 -112 7 -46 9 -46 -58 15 -29 26 -56 35 -56 20 0 -4 24 -32 53 -61
41 -43 47 -52 27 -46 -14 5 -60 9 -102 9 -88 0 -121 -17 -151 -78 -15 -29 -17
-46 -10 -75 12 -49 33 -50 62 -2 44 71 117 86 269 54 42 -9 109 -16 148 -17
91 0 133 23 172 97 23 44 27 63 27 136 0 72 -4 94 -27 143 -29 62 -110 155
-166 189 -20 12 -30 24 -24 26 18 6 114 -42 207 -102 83 -54 85 -57 85 -94 0
-41 23 -82 87 -157 47 -55 43 -93 -11 -119 l-39 -19 32 -29 c21 -18 42 -28 64
-28 72 0 136 75 122 142 -7 28 -6 29 15 18 20 -11 21 -10 10 10 -11 21 -10 22
18 15 67 -14 142 50 142 122 0 22 -10 43 -28 64 l-29 32 -19 -39 c-26 -54 -64
-58 -119 -11 -75 64 -116 87 -157 87 -37 0 -40 2 -94 85 -60 93 -108 189 -102
207 2 6 14 -4 26 -24 34 -56 127 -137 189 -166 49 -23 71 -27 143 -27 73 0 92
4 136 27 75 40 98 81 96 177 0 42 -8 109 -16 149 -32 146 -15 225 55 265 37
21 48 40 31 51 -25 16 -80 15 -111 -1z m-747 -417 c-7 -19 -34 -29 -34 -12 0
16 10 26 26 26 8 0 11 -6 8 -14z m46 -25 c0 -13 -29 -41 -42 -41 -5 0 0 11 13
25 27 28 29 29 29 16z m47 -88 c-3 -2 -25 -3 -48 -1 l-44 4 32 13 c20 8 36 24
44 44 l13 32 4 -44 c2 -23 1 -45 -1 -48z m180 -180 c-2 -1 -57 27 -123 62 -65
36 -114 66 -109 67 6 1 30 2 55 2 l45 1 1 45 c0 25 1 50 2 55 1 6 31 -44 67
-109 35 -66 63 -121 62 -123z"/>
<path d="M491 1391 c-15 -28 -14 -76 3 -90 8 -7 30 -11 48 -9 25 2 35 9 42 31
20 55 -67 118 -93 68z"/>
<path d="M1279 1392 c-35 -29 -30 -78 10 -114 38 -34 73 -32 104 4 26 30 21
60 -16 96 -37 36 -65 40 -98 14z"/>
<path d="M11422 1377 c-36 -37 -40 -65 -14 -95 30 -36 65 -38 103 -4 40 36 45
85 10 114 -34 27 -63 22 -99 -15z"/>
<path d="M12231 1384 c-37 -47 -20 -94 32 -94 41 0 57 15 57 53 0 67 -50 90
-89 41z"/>
<path d="M2450 1319 c-113 -179 -329 -327 -520 -359 -66 -11 -140 -37 -140
-50 0 -4 30 -10 68 -13 239 -23 443 -149 599 -369 30 -43 61 -78 68 -78 7 0
21 21 31 48 68 183 229 304 514 387 162 48 154 45 149 50 -3 2 -40 11 -83 20
-240 50 -441 178 -584 373 -25 34 -48 62 -51 62 -3 0 -26 -32 -51 -71z m230
-191 c84 -71 192 -133 285 -163 46 -15 82 -31 80 -35 -2 -4 -33 -17 -67 -30
-95 -34 -246 -114 -310 -165 -32 -25 -76 -68 -99 -97 -23 -29 -45 -55 -50 -56
-5 -2 -38 23 -73 55 -148 139 -282 222 -439 273 -46 14 -41 22 33 45 151 48
328 165 413 274 l49 62 62 -58 c34 -32 86 -79 116 -105z"/>
<path d="M2448 1144 c-27 -31 -48 -59 -48 -64 0 -5 13 -24 29 -42 15 -18 31
-43 35 -55 10 -33 -15 -30 -82 8 l-55 31 -88 -43 c-49 -24 -87 -48 -85 -54 3
-13 165 -94 189 -95 9 0 35 12 57 26 21 14 46 24 55 22 14 -3 14 -7 -3 -38
-10 -19 -24 -45 -32 -58 -14 -22 -12 -25 37 -72 28 -28 55 -50 60 -50 9 1 70
81 79 105 4 8 -9 32 -30 57 -20 23 -36 48 -36 55 0 23 54 14 102 -16 l46 -29
86 44 c47 25 86 50 86 57 -1 7 -40 31 -88 54 l-86 42 -51 -34 c-27 -19 -58
-35 -68 -35 -30 0 -17 50 26 98 21 22 21 23 3 55 -24 41 -67 87 -80 87 -6 0
-32 -26 -58 -56z"/>
<path d="M10247 1327 c-141 -192 -345 -323 -582 -372 -44 -9 -81 -18 -84 -20
-5 -5 -13 -2 149 -50 285 -83 446 -204 514 -388 10 -26 24 -47 31 -47 7 0 38
35 68 78 156 220 360 346 600 369 37 3 67 9 67 13 0 13 -74 39 -140 50 -102
17 -234 75 -320 142 -62 47 -160 154 -201 218 -24 38 -47 70 -50 70 -3 0 -26
-28 -52 -63z m100 -98 c85 -109 262 -226 413 -274 30 -10 59 -21 63 -25 4 -4
-27 -19 -70 -34 -130 -46 -265 -133 -399 -259 -35 -32 -68 -57 -73 -55 -5 1
-27 27 -50 56 -23 29 -67 72 -99 97 -64 51 -215 131 -310 165 -34 13 -65 26
-67 30 -2 4 34 20 80 35 110 35 216 102 342 214 56 49 104 95 108 101 9 15 10
15 62 -51z"/>
<path d="M10259 1173 c-15 -15 -34 -43 -45 -60 -18 -32 -18 -33 3 -55 43 -48
56 -98 26 -98 -10 0 -41 16 -69 35 l-51 35 -86 -42 c-47 -24 -86 -48 -87 -55
0 -7 39 -32 86 -57 l86 -44 46 29 c48 30 102 39 102 16 0 -7 -16 -32 -36 -55
-21 -25 -34 -49 -30 -57 9 -24 70 -104 79 -105 5 0 32 22 60 50 49 47 51 50
37 72 -8 13 -22 39 -32 58 -17 31 -17 35 -3 38 9 2 34 -8 55 -22 22 -14 48
-26 57 -26 24 1 186 82 189 95 2 6 -36 30 -85 54 l-88 43 -55 -31 c-67 -38
-92 -41 -82 -8 4 12 20 37 35 55 16 18 29 37 29 42 0 12 -90 114 -105 118 -6
1 -22 -10 -36 -25z"/>
<path d="M3660 1373 c-28 -10 -50 -36 -50 -58 0 -30 19 -45 55 -45 38 0 55 16
55 51 0 54 -16 68 -60 52z"/>
<path d="M9086 1365 c-10 -27 -7 -70 6 -83 7 -7 26 -12 43 -12 81 0 71 89 -12
106 -23 4 -32 2 -37 -11z"/>
<path d="M2157 1289 c-68 -145 -244 -256 -468 -293 -20 -4 -45 -16 -55 -28
l-19 -21 65 6 c98 9 175 32 276 82 71 34 104 58 147 104 57 62 91 137 85 185
-2 21 -8 16 -31 -35z"/>
<path d="M10610 1324 c-1 -171 220 -333 508 -372 34 -5 62 -6 62 -2 0 18 -42
41 -91 50 -215 40 -377 146 -448 291 -27 57 -31 61 -31 33z"/>
<path d="M2790 1314 c0 -3 12 -31 28 -62 73 -151 234 -247 479 -286 70 -11 85
-11 90 0 9 24 -8 34 -56 34 -67 0 -192 34 -262 72 -66 34 -173 130 -229 202
-32 41 -50 56 -50 40z"/>
<path d="M9960 1274 c-56 -72 -163 -168 -229 -202 -71 -38 -195 -72 -263 -72
-33 0 -50 -5 -54 -15 -11 -29 6 -32 90 -19 244 39 405 136 479 286 15 31 27
59 27 62 0 16 -18 1 -50 -40z"/>
<path d="M3503 1285 c-42 -30 -24 -85 27 -85 40 0 66 34 54 68 -11 32 -48 40
-81 17z"/>
<path d="M9220 1281 c-15 -28 -12 -46 8 -64 37 -34 92 -16 92 29 0 46 -79 73
-100 35z"/>
<path d="M1410 1269 c-7 -11 -9 -32 -6 -45 5 -19 13 -24 40 -24 69 0 86 27 43
68 -29 28 -63 28 -77 1z"/>
<path d="M11312 1267 c-41 -43 -25 -67 44 -67 27 0 35 5 40 24 14 58 -42 87
-84 43z"/>
<path d="M3392 1224 c-16 -11 -22 -24 -20 -42 2 -22 9 -28 35 -30 27 -3 35 1
45 23 22 48 -17 80 -60 49z"/>
<path d="M9350 1224 c-10 -11 -11 -23 -4 -42 8 -22 16 -27 44 -27 30 0 35 4
38 27 2 18 -4 31 -20 42 -28 20 -42 20 -58 0z"/>
<path d="M1550 1217 c-46 -23 -34 -87 16 -87 22 0 54 33 54 57 0 12 -27 43
-38 43 -4 0 -18 -6 -32 -13z"/>
<path d="M11196 1215 c-20 -20 -20 -35 0 -63 27 -39 84 -23 84 24 0 39 -57 66
-84 39z"/>
<path d="M5525 1160 c-31 -34 -130 -89 -214 -120 -125 -46 -262 -70 -403 -71
-67 0 -141 -6 -162 -12 -42 -13 -61 -37 -29 -37 60 0 453 -42 516 -55 149 -31
243 -73 306 -138 l33 -36 67 45 c123 81 317 134 621 169 140 16 150 16 313 -4
300 -38 466 -84 588 -165 l67 -45 33 36 c63 65 157 107 306 138 63 13 456 55
516 55 32 0 13 24 -29 37 -21 6 -95 12 -162 12 -242 2 -499 81 -614 188 l-27
26 -68 -41 c-138 -83 -289 -129 -600 -182 l-183 -31 -182 31 c-309 53 -461 99
-600 181 -36 21 -68 39 -71 39 -2 0 -12 -9 -22 -20z m209 -126 c48 -19 116
-40 150 -48 55 -13 270 -46 298 -46 8 0 8 -3 2 -9 -5 -5 -85 -19 -179 -31
-211 -26 -286 -42 -367 -74 l-63 -26 -90 44 c-97 48 -186 73 -289 83 -36 3
-66 9 -66 13 0 3 57 17 128 30 101 20 144 33 212 68 100 51 121 51 264 -4z
m1597 3 c67 -34 110 -47 212 -67 70 -13 127 -27 127 -30 0 -4 -30 -10 -66 -13
-103 -10 -192 -35 -289 -83 l-90 -44 -63 26 c-81 32 -156 48 -367 74 -93 12
-174 26 -179 31 -6 6 -6 9 2 9 29 0 243 33 300 46 35 8 97 28 139 45 150 59
169 60 274 6z"/>
<path d="M1372 1100 c-30 -28 -56 -80 -40 -80 6 0 22 10 34 21 21 19 27 20 53
9 66 -27 90 -146 43 -209 -20 -27 -38 -30 -96 -15 l-29 7 19 -33 c45 -76 101
-90 151 -37 47 48 64 100 64 189 0 89 -16 130 -61 153 -43 22 -111 19 -138 -5z"/>
<path d="M3491 1107 c-50 -25 -66 -62 -66 -150 0 -70 4 -91 29 -140 28 -58 72
-97 108 -97 22 0 75 46 94 81 17 34 6 37 -38 12 -29 -18 -30 -18 -53 10 -55
63 -57 157 -4 210 28 28 31 28 54 13 13 -9 29 -16 35 -16 21 0 9 39 -21 64
-34 29 -96 35 -138 13z"/>
<path d="M9172 1095 c-30 -26 -44 -65 -22 -65 6 0 22 7 35 16 23 15 26 15 54
-13 53 -53 51 -147 -4 -210 -23 -28 -24 -28 -53 -10 -44 25 -55 22 -38 -12 19
-35 72 -81 94 -81 87 0 166 183 133 306 -16 59 -50 86 -114 92 -46 4 -57 1
-85 -23z"/>
<path d="M11288 1104 c-43 -23 -59 -64 -59 -153 0 -90 16 -140 63 -188 51 -53
107 -39 152 37 l19 33 -29 -7 c-58 -15 -76 -12 -96 15 -47 63 -23 182 43 209
26 11 32 10 53 -9 34 -32 50 -27 31 9 -27 52 -54 70 -104 70 -25 -1 -58 -7
-73 -16z"/>
<path d="M4543 1010 c-43 -40 -34 -123 16 -150 29 -15 87 -12 105 6 24 24 22
118 -4 144 -27 27 -89 27 -117 0z"/>
<path d="M8140 1010 c-26 -26 -28 -120 -4 -144 18 -18 76 -21 105 -6 50 27 59
110 16 150 -28 27 -90 27 -117 0z"/>
<path d="M1626 877 c-16 -12 -8 -15 69 -26 230 -32 405 -132 464 -266 16 -37
45 -65 65 -65 19 0 0 56 -35 110 -74 110 -217 208 -356 244 -75 20 -183 21
-207 3z"/>
<path d="M3225 879 c-192 -36 -324 -128 -389 -270 -27 -58 -44 -139 -30 -139
5 0 25 35 44 77 48 107 126 186 240 241 89 44 182 72 236 72 17 0 37 7 44 15
11 13 5 15 -41 14 -30 -1 -76 -5 -104 -10z"/>
<path d="M9429 877 c7 -10 28 -17 45 -17 53 0 146 -28 236 -72 113 -55 192
-133 240 -241 19 -42 39 -77 44 -77 15 0 -4 83 -34 148 -72 154 -239 251 -465
269 -74 6 -79 5 -66 -10z"/>
<path d="M10955 871 c-139 -40 -272 -134 -344 -241 -35 -54 -54 -110 -35 -110
20 0 48 27 63 63 57 133 236 236 466 268 77 11 85 14 69 26 -25 18 -146 15
-219 -6z"/>
<path d="M1847 733 c-8 -15 -54 -66 -101 -113 -104 -102 -121 -137 -114 -242
5 -80 24 -125 72 -176 58 -63 98 -77 216 -77 95 0 110 3 156 27 28 15 62 40
76 56 28 33 54 90 45 98 -3 4 -37 -19 -74 -50 -97 -80 -171 -101 -265 -72
-105 31 -173 119 -173 223 0 69 17 101 75 141 24 16 47 22 87 22 47 0 59 -4
84 -29 57 -57 29 -144 -47 -145 -22 -1 -49 3 -61 7 -19 7 -23 5 -23 -13 0 -56
47 -99 108 -100 59 0 95 36 112 113 12 50 11 63 -7 117 -11 33 -18 60 -16 60
2 0 17 -7 32 -14 36 -19 77 -66 142 -163 126 -187 214 -234 283 -153 22 27 43
86 34 95 -2 2 -21 -1 -44 -7 -22 -6 -51 -8 -65 -5 -13 4 -78 54 -144 112 -152
135 -203 164 -327 190 -26 5 -27 8 -25 61 2 65 -14 81 -36 37z"/>
<path d="M10914 745 c-4 -8 -3 -35 0 -60 7 -43 6 -45 -21 -50 -126 -26 -175
-55 -328 -190 -66 -58 -131 -108 -144 -112 -14 -3 -43 -1 -65 5 -23 6 -42 9
-44 7 -9 -8 11 -66 30 -90 68 -87 160 -40 286 147 66 98 107 145 143 164 15 7
30 14 32 14 2 0 -5 -27 -16 -60 -18 -54 -19 -67 -7 -117 17 -77 53 -113 112
-113 61 1 108 44 108 100 0 18 -4 20 -22 13 -13 -4 -40 -8 -62 -7 -76 1 -104
88 -47 145 25 25 37 29 84 29 40 0 63 -6 87 -22 58 -40 75 -72 75 -141 0 -104
-68 -192 -173 -223 -94 -29 -168 -8 -265 72 -37 31 -71 54 -74 50 -9 -8 17
-65 45 -98 14 -16 48 -41 76 -56 46 -24 61 -27 156 -27 118 0 158 14 216 77
48 51 67 96 72 176 7 105 -10 141 -113 241 -47 45 -92 96 -100 112 -17 32 -32
37 -41 14z"/>
<path d="M3090 730 c-6 -10 -8 -37 -4 -58 l6 -39 -42 -7 c-68 -11 -114 -41
-182 -118 -121 -139 -161 -174 -211 -186 -31 -8 -60 -9 -87 -3 -22 5 -42 5
-45 1 -9 -15 13 -57 45 -83 27 -23 41 -27 95 -27 57 0 68 3 98 30 20 17 61 80
98 151 57 109 103 169 130 169 5 0 -2 -20 -16 -43 -41 -72 -29 -136 35 -191
73 -61 159 -56 180 10 7 19 9 48 5 64 l-7 30 -25 -20 c-50 -39 -112 -18 -133
46 -18 53 2 91 58 116 78 35 168 5 219 -71 32 -48 32 -149 0 -206 -51 -90
-166 -140 -272 -116 -54 12 -76 28 -136 100 -35 40 -64 42 -54 4 19 -81 111
-144 220 -151 126 -8 233 39 292 130 24 35 29 54 31 123 6 120 -17 156 -163
267 -33 25 -71 58 -84 72 -29 31 -37 32 -51 6z"/>
<path d="M9659 724 c-13 -14 -51 -47 -84 -72 -146 -111 -169 -147 -163 -267 2
-69 7 -88 31 -123 103 -156 369 -179 478 -42 36 46 48 90 24 90 -10 0 -29 -14
-44 -31 -60 -72 -82 -88 -136 -100 -106 -24 -221 26 -272 116 -32 57 -32 158
0 206 51 76 141 106 219 71 56 -25 76 -63 58 -116 -21 -64 -83 -85 -133 -46
l-25 20 -7 -30 c-4 -16 -2 -45 5 -64 21 -66 107 -71 180 -10 64 55 76 119 35
191 -14 23 -21 43 -16 43 27 0 73 -60 130 -169 37 -71 78 -134 98 -151 30 -27
41 -30 98 -30 53 0 68 4 93 25 28 24 56 78 46 88 -3 3 -23 1 -45 -4 -26 -6
-55 -5 -86 3 -50 12 -95 52 -217 191 -62 73 -109 102 -176 113 l-42 7 6 39 c6
37 -6 78 -23 78 -4 0 -18 -12 -32 -26z"/>
<path d="M3392 699 c-11 -17 -11 -25 3 -45 19 -29 55 -31 78 -6 23 25 21 38
-5 56 -31 22 -61 20 -76 -5z"/>
<path d="M9332 704 c-27 -18 -28 -36 -4 -57 26 -24 59 -21 77 7 32 49 -22 86
-73 50z"/>
<path d="M1554 700 c-30 -12 -37 -39 -19 -66 20 -31 59 -31 79 -2 21 30 20 55
-3 68 -23 12 -29 12 -57 0z"/>
<path d="M11188 699 c-22 -12 -23 -38 -2 -67 20 -29 59 -29 79 2 19 28 10 54
-22 67 -30 11 -34 11 -55 -2z"/>
<path d="M3502 648 c-7 -7 -12 -26 -12 -43 0 -38 16 -55 51 -55 36 0 59 24 59
61 0 22 -6 32 -26 39 -34 13 -57 13 -72 -2z"/>
<path d="M9223 650 c-17 -7 -23 -18 -23 -39 0 -37 23 -61 59 -61 35 0 51 17
51 55 0 51 -32 67 -87 45z"/>
<path d="M1422 638 c-7 -7 -12 -24 -12 -38 0 -33 17 -50 50 -50 44 0 70 41 54
84 -7 19 -74 22 -92 4z"/>
<path d="M11286 635 c-18 -47 12 -89 60 -83 34 4 55 48 38 76 -15 24 -89 29
-98 7z"/>
<path d="M1308 579 c-21 -12 -24 -69 -6 -87 15 -15 63 -16 89 -2 27 15 24 55
-7 79 -29 23 -50 26 -76 10z"/>
<path d="M11416 569 c-49 -39 -26 -89 41 -89 38 0 53 16 53 57 0 52 -47 69
-94 32z"/>
<path d="M3617 562 c-36 -39 -7 -92 49 -92 37 0 54 16 54 51 0 51 -70 78 -103
41z"/>
<path d="M9102 564 c-24 -17 -30 -62 -10 -82 7 -7 26 -12 43 -12 56 0 85 58
47 93 -23 21 -51 22 -80 1z"/>
<path d="M2490 263 c0 -10 -11 -44 -24 -75 l-24 -58 22 -53 c40 -99 47 -99 88
-11 25 53 29 70 20 83 -12 16 -18 28 -45 94 -17 39 -37 50 -37 20z"/>
<path d="M10273 243 c-27 -66 -33 -78 -45 -94 -9 -13 -5 -30 20 -83 41 -88 48
-88 88 11 l22 53 -24 57 c-13 32 -24 66 -24 76 0 30 -20 19 -37 -20z"/>
</g>
</svg>
